<svg width="36" height="36" viewBox="0 0 36 36" fill="none" xmlns="http://www.w3.org/2000/svg">
<path d="M31.5 10.5H4.5C3.885 10.5 3.375 9.82 3.375 9C3.375 8.18 3.885 7.5 4.5 7.5H31.5C32.115 7.5 32.625 8.18 32.625 9C32.625 9.82 32.115 10.5 31.5 10.5Z" fill="black"/>
<path d="M31.5 20.502H4.5C3.885 20.502 3.375 19.822 3.375 19.002C3.375 18.182 3.885 17.502 4.5 17.502H31.5C32.115 17.502 32.625 18.182 32.625 19.002C32.625 19.822 32.115 20.502 31.5 20.502Z" fill="black"/>
<path d="M31.5 30.498H4.5C3.885 30.498 3.375 29.818 3.375 28.998C3.375 28.178 3.885 27.498 4.5 27.498H31.5C32.115 27.498 32.625 28.178 32.625 28.998C32.625 29.818 32.115 30.498 31.5 30.498Z" fill="black"/>
</svg>
