<svg width="479" height="500" viewBox="0 0 479 500" fill="none" xmlns="http://www.w3.org/2000/svg">
<path d="M321.482 128.197C329.617 117.001 328.142 113.045 327.732 99.351L336.611 85.0154L338.702 85.5182C341.951 92.1208 338.647 97.2491 338.23 102.886C338.035 105.523 339.514 108.639 339.217 111.875C338.219 122.855 328.087 124.718 331.647 136.344C337.091 134.795 332.602 128.154 334.079 125.141C335.708 121.812 340.459 119.858 342.116 113.431C343.639 107.523 341.008 105.909 341.112 101.604C341.289 94.0395 344.644 89.8917 339.712 82.015C333.937 72.7777 321.76 75.1751 314.611 81.6814C302.946 92.3009 305.283 105.998 306.009 120.61C306.231 125.132 308.48 128.075 307.276 133.566C306.168 138.635 301.467 140.635 300.913 145.598C292.046 142.594 285.296 135.551 276.681 132.028C255.627 123.405 228.78 122.409 208.077 111.717C204.003 109.612 200.414 107.604 198.2 103.379L202.556 102.594L197.44 101.674C199.804 88.6478 197.196 58.6311 187.153 49.3653C184.96 47.3449 177.44 43.2313 174.789 42.7546L156.893 39.5359L156.16 43.6116C166.289 47.1437 178.001 46.864 186.384 54.3743L188.755 73.7266C186.541 74.9385 177.559 58.5994 177.315 72.7301C174.419 70.8895 171.879 68.305 169.035 66.4104C167.682 65.5071 168.283 63.6884 165.893 65.9351C168.736 68.6584 170.86 72.0336 172.566 75.5871C175.222 81.1066 178.044 94.4635 180.43 98.2872C181.443 99.9055 184.599 101.154 185.553 103.221L178.155 100.306C186.541 106.656 198.737 113.168 208.651 116.688C211.447 117.676 214.922 116.063 216.425 119.305L209.384 129.648C198.632 138.389 188.339 121.882 178.834 128.889L197.182 137.611L193.464 146.069C187.673 144.468 177.796 149.813 175.052 143.545C173.607 140.244 177.565 138.997 174.456 138.665C171.097 140.194 164.998 146.941 168.043 150.24C172.044 154.164 181.489 149.923 185.779 151.181C186.411 151.363 186.134 154.259 188.491 154.514C195.05 152.843 201.011 148.509 205.74 143.737L203.861 142.412L207.434 137.2L207.037 142.403C210.393 141.391 209.781 136.63 212.026 133.518C214.643 129.887 221.457 126.889 221.48 120.743L242.276 126.895C247.566 134.514 256.7 142.461 262.136 150.175C265.627 155.137 264.523 157.726 266.432 161.495C269.729 168.011 273.248 161.042 274.116 157.07C275.165 152.291 269.149 139.811 277.33 138.638C283.11 137.809 286.754 145.327 289.63 149.862C293.588 156.106 295.685 163.916 302.703 168.061L277.799 179.171C270.694 180 264.301 173.523 258.758 171.745C263.089 176.621 267.616 178.791 274.199 179.807C269.055 186.383 263.953 186.912 256.011 187.078C259.929 178.565 244.235 179.697 239.587 180.84C236.94 181.494 236.272 183.887 234.715 184.145C229.516 185.005 225.959 177.65 217.111 180.683C214.201 181.68 212.748 184.914 208.226 182.686C216.831 173.284 247.507 168.143 258.757 171.75C257.606 170.456 257.867 169.183 255.314 167.43C248.369 162.67 239.407 164.342 231.61 165.526C222.319 166.938 203.22 171.227 205.817 183.921C207.844 193.825 213.911 185.524 217.774 185.485C219.112 185.472 232.977 187.729 233.503 188.33C234.628 189.62 232.203 196.437 238.885 196.641C246.435 193.776 256.768 194.468 264.016 191.495C267.705 189.984 269.436 187.143 272.267 185.351C282.09 179.13 292.099 181.828 303.265 179.65L334.526 192.895C337.969 195.605 338.134 204.462 337.675 208.602C337.425 210.875 337.645 210.001 336.419 209.475C310.542 198.448 292.962 205.512 269.289 217.06C264.785 219.254 254.681 224.189 251.067 226.87C249.659 227.915 248.22 229.045 248.12 230.98L251.255 230.52C251.433 231.355 251.375 232.616 251.85 233.262C253.354 235.295 275.781 245.157 279.654 246.176C290.355 248.993 300.1 248.755 310.754 249.631C315.755 250.045 320.519 251.984 325.714 251.847C332.22 251.676 337.356 247.669 342.907 245.701C345.446 244.8 349.321 245.54 351.442 243.82C353.563 242.1 356.003 235.349 357.891 232.516C359.6 229.946 363.645 228.773 363.347 224.29C369.944 227.609 372.038 235.171 376.189 240.838C378.556 244.067 382.82 247.109 384.953 250.845C383.891 252.375 382.672 249.902 382.493 249.869L361.015 246.006C355.546 245.023 349.88 248.074 345.406 249.281C343.085 249.908 339.741 248.768 338.592 250.399C350.772 252.801 363.423 251.18 375.632 252.864C382.321 253.787 390.723 253.646 389.165 262.663C385.63 261.911 381.967 261.574 378.442 260.734C368.944 258.45 363.811 255.426 353.439 255.683C349.121 255.788 325.802 257.554 323.112 258.384C320.831 259.088 316.424 263.559 313.807 264.925C317.713 266.731 319.524 262.828 321.436 262.063C324.697 260.76 351.269 258.555 355.668 258.881C367.244 259.739 378.602 264.104 390.23 264.908C391.658 273.178 388.05 280.58 391.834 288.963L389.524 289.741C382.67 287.732 373.988 287.612 367.219 284.43C362.529 282.225 358.534 276.306 353.133 275.176L364.025 285.038C361.379 285.919 356.336 282.974 354.375 285.921C362.187 287.474 368.627 286.172 375.256 291.546L386.536 294.868C365.658 302.563 339.169 300.666 322.962 284.5C323.255 292.593 336.117 298.839 342.885 301.498C353.89 305.826 363.041 306.279 374.602 304.077C379.989 303.05 390.485 298.08 394.43 297.787C396.063 297.664 397.729 299.267 398.308 299.012C398.819 298.787 399.375 296.427 401.117 295.907C405.326 294.647 416.215 298.474 418.519 293.266L420.532 293.618C420.44 296.8 425.2 297.556 428.531 300.151C450.879 317.553 464.944 340.577 485.555 358.886C489.526 362.414 493.561 366.408 499.235 366.81C493.117 354.608 479.575 347.796 470.742 337.882C459.949 325.768 453.155 314.705 439.669 304.028C435.209 300.491 429.456 297.472 424.638 294.34C423.563 292.21 439.237 277.212 442.298 275.408C444.839 281.043 446.348 287.307 449.761 292.556C453.352 298.08 482.241 326.303 487.708 329.678C495.376 334.41 505.321 336.526 511.611 344.372C516.482 350.443 520.207 359.918 525.656 365.977C520.117 373.396 522.29 383.458 510.906 377.039C493.456 367.196 486.644 364.694 467.949 357.699C452.435 351.894 433.216 342.525 422.477 329.819L419.261 347.696C415.628 367.896 437.15 421.697 453.258 434.941C465.617 445.104 496.915 451.362 512.828 452.566C516.914 452.873 520.276 451.419 523.7 451.47C531.238 451.58 538.886 451.958 546.408 452.455C547.645 453.063 553.008 461.271 554.235 463.17C559.445 471.234 563.193 478.354 568.621 486.257L577.35 498.955C581.101 497.302 578.359 494.576 578.301 492.052C578.087 483.462 578.053 483.297 573.592 475.653C569.575 468.77 567.975 468.999 563.405 464.93C562.745 464.342 553.087 451.524 552.944 450.648C552.346 446.924 555.649 443.623 555.549 439.978L550.63 403.992L554.312 400.99C541.894 396.972 553.265 389.425 555.254 383.685C557.844 376.185 556.843 366.656 564.222 360.602C568.659 367.53 574.452 374.173 575.577 382.658C577.115 384.328 580.64 371.305 581.161 369.377C581.741 367.238 581.053 365.018 581.512 363.316C582.455 359.833 587.157 351.398 587.012 348.357C586.999 348.048 585.88 346.079 585.14 346.933C583.546 350.891 581.924 347.632 580.07 348.544C575.753 350.671 573.044 363.472 566.824 357.882L566.852 354.73C551.977 365.58 550.352 383.305 541.962 398.648C534.533 398.547 527.166 396.725 520.967 392.342L520.485 391.263C520.952 389.574 522.703 387.74 522.967 386.156C523.529 382.762 519.518 383.16 527.448 379.624C526.171 368.366 531.532 370.777 537.297 366.883C543.279 362.843 541.878 353.659 543.976 348.219C544.769 346.16 547.257 344.923 548.393 342.984C550.403 339.561 551.964 335.813 553.98 332.386C549.705 333.401 549.155 337.927 547.042 341.041C545.783 342.9 543.485 344.34 542.508 346.102C538.207 353.865 538.764 366.714 526.75 366.501C523.325 355.005 515.849 342.949 505.812 335.88C499.587 331.498 491.425 328.715 485.784 324.755C482.052 322.13 480.412 317.681 477.304 314.551C465.114 302.28 449.528 292.646 443.887 275.144C450.507 269.82 453.857 265.466 456.518 257.25C459.734 247.328 459.886 239.019 464.09 229.565C466.467 224.218 467.331 213.545 463.774 208.624C462.852 207.35 461.032 207.07 460.121 205.797C456.604 200.889 461.532 196.57 450.523 195.936C442.646 195.48 438.536 197.449 435.503 204.564C440.781 198.565 449.637 198.775 456.062 203.257C456.606 203.639 462.525 214.101 462.689 214.743C464.936 223.573 459.261 223.645 455.187 227.061C450.801 230.744 441.957 237.954 440.303 242.951C439.377 245.752 439.648 249.322 438.406 251.796C437.229 254.139 428.128 258.341 426.506 261.692C424.683 265.456 424.829 272.076 421.113 275.789C416.137 269.303 414.326 256.883 415.886 249.002C416.891 243.914 422.485 237.799 424.034 232.444C425.089 228.812 424.39 223.217 425.231 221.415C426.073 219.613 429.53 218.92 430.945 216.662C432.938 213.483 434.079 207.902 435.502 204.569C432.993 207.422 432.19 211.211 430.025 214.052C428.809 215.649 426.207 216.227 425.031 218.449C422.844 222.59 423.498 228.526 421.717 232.967C420.274 236.556 414.484 241.908 413.377 245.51C412.75 247.556 412.524 255.065 412.517 257.629C412.51 259.697 415.046 268.268 412.195 266.794C404.271 257.609 393.88 250.281 386.224 241.017C384.584 239.033 374.287 224.489 374.202 223.376C373.841 218.686 381.913 216.591 384.617 214.358C386.05 213.175 401.918 196.337 402.61 195.221C403.177 194.304 410.282 178.789 410.752 177.353C414.709 165.215 413.051 159.047 412.41 147.755C411.956 139.824 414.2 133.486 408.867 126.075C406.67 123.02 399.68 117.84 395.99 117.535C394.216 117.385 382.182 118.805 380.212 119.338C377.648 120.027 371.757 123.941 370.654 126.171C369.964 127.567 366.207 142.787 365.885 145.137C365.431 148.481 366.641 150.979 366.439 153.746C366.016 159.53 364.473 166.76 364.324 172.197C364.152 178.559 373.149 193.639 374.745 200.683C374.56 207.202 361.303 202.505 356.898 204.004C353.078 203.158 338.173 182.428 334.17 177.933C332.012 175.513 322.151 166.971 321.635 165.142C321.265 163.819 323.698 162.683 323.855 160.932C324.1 158.22 319.849 153.486 319.625 151.324C319.328 148.456 321.455 146.674 321.799 144.054L317.633 149.63L312.902 146.651L318.07 140.559C314.17 133.966 317.683 133.432 321.495 128.183L317.224 128.466C317.898 125.778 319.662 123.34 322.09 121.971L321.495 128.183L321.482 128.197ZM320.009 83.6449L321.643 85.3377C320.02 86.8143 319.766 91.7205 316.668 90.4189L320.009 83.65L320.009 83.6449ZM324.943 97.1811C319.851 96.0382 322.86 90.5559 327.067 91.2439L324.943 97.1811ZM174.903 74.4238C176.664 73.2992 179.158 79.1908 179.099 80.4313C177.455 81.5557 175.186 75.4936 174.903 74.4238ZM181.986 82.0275L187.273 81.9119L186.907 83.9472L181.806 83.0298L181.986 82.0275ZM380.896 137.706L375.302 136.942C370.059 126.217 388.862 125.275 396.005 124.733C395.509 127.405 392.74 127.821 391.299 130.169C387.979 135.585 390.991 137.842 381.724 133.747L380.897 137.7L380.896 137.706ZM186.179 88.0503L188.212 88.4054L188.512 92.672C185.885 92.4742 185.35 90.4298 186.179 88.0503ZM408.876 135.484L410.816 136.356C407.787 143.181 413.455 150.134 406.486 154.582C404.942 155.36 404.947 150.779 400.707 151.299C394.432 152.066 395.848 157.172 395.434 157.304C391.513 158.578 390.684 153.377 390.36 153.213C386.888 151.432 387.896 154.755 386.402 156.482C385.428 157.61 384.154 157.265 383.364 158.749C381.614 162.05 383.612 164.859 383.119 167.13C382.996 167.694 381.413 167.425 380.898 168.172C378.715 171.354 376.144 175.78 375.506 179.566C374.203 187.309 384.285 189.513 377.162 197.254L367.485 174.476C369.228 169.246 367.064 148.099 372.065 146.248C375.879 144.838 380.779 147.456 381.148 151.572C383.926 145.641 387.612 147.286 390.884 145.631C392.278 144.926 393.904 141.291 395.761 140.421C399.078 138.864 407.021 141.481 408.882 135.48L408.876 135.484ZM187.779 96.7742C189.892 95.2748 192.259 104.876 193.536 105.792L197.383 104.81L199.237 109.362L188.348 105.297C191.887 101.715 187.522 100.407 187.785 96.77L187.779 96.7742ZM310.631 135.732C309.954 134.676 314.598 129.239 316.836 130.539C315.117 132.373 313.834 136.509 310.631 135.732ZM409.279 156.647L412.251 157.8L409.951 170.468C405.664 170.462 409.833 165.959 410.092 163.694C410.352 161.428 408.239 159.11 409.278 156.652L409.279 156.647ZM305.176 148.471L310.097 150.417C310.516 155.397 304.351 148.682 305.176 148.471ZM310.759 152.638L312.785 153.002L313.27 156.236C311.34 156.248 310.085 154.507 310.754 152.637L310.759 152.638ZM267.83 156.515L269.344 156.787L271.37 160.298C269.443 160.205 268.354 159.824 267.564 158.024L267.836 156.511L267.83 156.515ZM378.097 177.403L380.133 177.769L379.033 183.886L376.997 183.519L378.097 177.403ZM388.858 198.096C390.089 196.77 388.844 193.912 390.848 194.457L389.748 200.573L386.97 198.49C386.797 197.54 388.427 198.551 388.859 198.09L388.858 198.096ZM285.814 179.768C287.892 177.027 292.63 177.494 295.75 177.358C293.654 179.758 288.79 179.491 285.814 179.768ZM339.57 197.889C342.66 197.916 341.093 198.907 341.306 200.656C341.673 203.641 341.82 206.846 341.629 209.847C337.322 209.183 340.251 200.946 339.565 197.888L339.57 197.889ZM359.099 206.68C366.644 208.132 373.285 209.797 380.939 208.497L371.385 220.478L359.099 206.68ZM239.743 189.431C240.275 189.089 243.998 189.061 245.033 189.327C243.961 191.557 241.399 190.912 239.564 190.428C239.674 190.11 239.581 189.539 239.743 189.431ZM310.329 213.73L326.392 212.396L325.67 216.474C321.752 215.262 317.721 216.005 313.745 215.438C312.607 215.275 309.747 215.378 310.328 213.735L310.329 213.73ZM332.519 228.253C321.989 227.215 310.901 223.732 300.303 222.459C300.814 220.909 304.96 221.613 306.432 221.624C318.497 221.703 331.121 223.72 342.967 225.925C340.996 230.512 339.288 227.824 335.75 227.731C334.436 227.695 332.971 228.298 332.519 228.253ZM254.785 229.043C262.306 228.986 272.952 221.504 279.795 221.901C294.335 222.753 309.335 228.534 323.438 231.878C328.305 233.033 333.374 233.486 338.246 234.557L334.729 236.549C335.538 238.837 335.534 239.856 338.355 239.851C340.076 242.119 327.342 244.765 326.147 244.798C321.372 244.921 315.886 242.736 311.006 242.323C292.851 240.778 273.762 240.143 257.087 231.458C256.005 230.894 254.679 230.661 254.785 229.043ZM439.218 256.234C439.722 255.929 442.104 255.196 442.186 255.358C442.351 258.608 439.235 261.104 438.632 263.752C438.2 265.654 439.184 267.583 438.404 269.718C437.529 272.116 426.905 281.149 424.421 283.796C427.566 279.262 426.742 268.925 428.34 265.475C428.694 264.709 437.96 257.005 439.218 256.234ZM439.582 401.097C435.162 393.661 426.93 373.476 425.115 365.099C423.096 355.771 422.035 344.785 423.6 335.316C435.65 344.673 432.453 360.627 436.215 373.478C437.255 377.033 447.31 397.361 449.367 400.106C451.122 402.449 453.906 404.65 456.092 407.06C456.789 407.824 457.567 410.165 458.96 408.647C457.101 405.562 454.4 402.722 452.753 399.549C445.463 385.488 443.052 372.464 442.407 356.669C442.37 355.733 441.658 353.757 442.995 353.58C445.859 356.799 452.876 359.28 455.35 362.438C463.345 372.666 463.686 401.605 470.637 408.588C472.597 410.556 475.76 411.056 476.991 413.991C476.652 415.873 464.575 413.543 465.858 419.892L471.822 425.198C471.758 427.024 469.271 425.817 468.202 425.476C456.489 421.797 445.734 411.437 439.583 401.092L439.582 401.097ZM461.294 366.364C469.709 368.965 471.807 375.038 476.508 381.29C477.612 382.76 479.598 382.991 480.325 384.209C483.322 389.214 481.552 404.311 488.591 408.196C488.049 412.179 482.186 409.214 482.203 414.406C480.573 414.482 480.61 413.866 479.913 412.87C476.037 407.316 468.409 386.532 465.552 379.039C463.98 374.919 463.098 370.426 461.294 366.364ZM477.947 373.582C481.884 372.252 484.315 374.854 487.611 375.352C490.228 375.749 492.69 375.041 495.986 375.744C503.102 377.262 509.238 382.378 516.069 384.657C516.21 388.599 512.046 385 509.444 386.047L508.668 390.685C496.514 390.484 507.273 394.42 509.431 397.748C510.515 399.416 510.173 401.815 511.648 403.363C508.765 404.418 505.489 403.929 505.536 408.039C513.694 412.69 526.636 413.149 516.573 424.315C518.374 428.519 524.111 427.925 527.604 426.236C529.565 425.29 539.192 420.132 540.516 419.108C543.002 417.18 544.583 412.475 548.517 412.597C550.911 412.674 549.662 413.716 549.776 415.283C550.444 424.257 550.657 426.1 543.254 431.405C542.259 432.118 540.486 431.667 539.471 432.377C535.324 435.295 528.451 443.756 522.572 440.503C522.182 438.532 518.263 434.919 517.997 434.253C517.571 433.184 516.367 425.724 515.904 424.897C512.448 418.679 494.055 409.68 490.132 403.094C488.014 399.54 487.717 392.914 486.23 388.819C484.247 383.368 480.698 378.607 477.949 373.572L477.947 373.582ZM519.745 405.331C522.451 401.769 518.842 398.955 520.568 394.942L531.265 400.039L530.09 403.021L532.554 404.499L532.193 406.509C527.449 407.604 524.28 406.807 519.74 405.33L519.745 405.331ZM487.567 422.139C490.774 420.551 494.191 419.756 497.175 417.204L502.864 422.868C495.342 422.344 497.403 426.537 496.661 427.343C496.036 428.028 490.111 428.583 489.158 431.5L486.75 430.296L484.919 423.415C486.323 423.8 486.837 422.498 487.567 422.139Z" fill="white" fill-opacity="0.36"/>
<path d="M70.9366 83.1342C77.9266 78.7743 102.823 77.5454 108.326 82.4258C108.926 82.9615 108.952 84.3756 109.7 85.2652C110.449 86.1547 112.226 86.1417 112.511 86.4939C112.796 86.8462 110.954 88.806 111.832 90.859C114.358 96.7826 123.221 99.4485 129.133 99.9364C130.544 101.901 121.381 107.918 119.63 108.759C115.974 110.525 109.22 110.693 107.184 112.09C101.821 115.771 104.28 127.326 90.4353 121.431C92.4523 119.35 95.8789 121.001 96.567 116.764C91.1036 112.782 79.7038 112.295 76.1154 118.855L84.2984 120.343L83.515 124.346C80.7862 123.808 78.6035 123.405 77.8779 126.558C75.5254 127.745 74.4058 120.902 73.5262 119.773C72.2682 118.164 69.2681 117.312 67.7582 115.283C66.2483 113.253 66.6564 110.867 65.4439 109.503C63.0772 106.834 55.685 104.327 52.9465 100.994C51.051 107.157 59.9977 109.949 61.808 113.157C63.0617 115.378 62.0738 118.051 63.1359 120.28C64.0108 122.111 67.2997 123.705 68.5171 125.482C70.5608 128.478 69.6281 132.196 74.1241 134.097C81.4515 137.2 85.5839 134.163 91.8764 134.445C99.8395 134.805 110.863 139.528 118.655 136.933C126.255 134.409 126.26 127.774 128.816 121.962C131.384 116.115 135.074 110.983 135.855 104.44C144.999 103.988 154.309 104.47 163.252 102.024C166.874 101.033 171.227 100.528 172.054 96.0471C160.511 97.1175 148.096 98.8386 138.158 91.4288C134.819 88.9383 133.377 85.9127 129.184 83.3583C116.704 75.75 107.061 73.6567 92.4564 74.8679C90.4562 75.036 68.1605 78.9236 70.9315 83.1333L70.9366 83.1342ZM100.477 124.303L102.513 124.67L101.964 127.723L99.9276 127.356L100.477 124.303ZM82.4607 130.56L90.8202 131.008C89.909 133.373 83.0103 132.908 82.4607 130.56Z" fill="white" fill-opacity="0.36"/>
<path d="M234.839 75.7065C234.31 71.9844 232.551 68.6959 231.768 64.886C230.132 56.9211 228.523 45.8094 233.849 38.9226C234.861 37.6158 235.697 36.4622 237.548 37.1806C232.892 51.8798 238.151 72.385 246.325 85.1685C247.314 86.7189 247.79 87.1847 247.957 84.9341C242.119 75.0468 239.384 63.3841 238.044 52.041L249.807 63.11L250.397 65.2328C246.918 73.1489 249.059 84.0342 255.497 89.9698C257.182 88.7049 251.222 83.0506 250.998 81.036C250.146 73.3229 257.964 66.5886 252.792 57.4386C250.729 53.7839 240.637 51.9001 241.144 46.8178C241.944 38.8475 256.775 46.4775 260.983 47.72C263.184 41.5908 256.362 41.52 254.459 37.0704L268.415 47.4834C260.81 36.497 249.851 27.9481 235.833 32.7966C221.9 37.6129 227.38 66.6414 234.828 75.7097L234.839 75.7065Z" fill="white" fill-opacity="0.36"/>
<path d="M169.641 138.855C166.808 137.136 161.23 139.929 159.168 138.587C158.539 138.178 156.028 134.374 156.018 133.607C155.974 129.069 160.22 131.242 162.665 130.774C170.704 129.243 178.38 123.744 187.385 121.22C188.892 120.799 190.086 122.381 190.045 119.323C185.737 119.224 180.265 120.573 176.217 121.935C169.988 124.035 166.913 125.42 160.226 127.242C152.728 129.288 148.735 135.691 153.057 142.761C156.667 148.674 171.074 140.638 169.641 138.855Z" fill="white" fill-opacity="0.36"/>
<path d="M265.574 82.9819C268.702 87.3191 272.4 87.166 270.464 95.2908C269.724 98.4045 264.849 101.841 268.632 104.976C274.577 99.6732 271.954 93.9961 273.382 87.3743C273.575 86.4798 275.426 85.6408 275.674 83.6741C275.986 81.2067 273.297 76.864 275.348 73.5058C273.654 72.974 273.928 75.8214 272.152 76.0351C270.068 76.2885 265.372 71.5637 262.448 74.9021C261.69 76.3864 264.643 81.6953 265.569 82.9809L265.574 82.9819Z" fill="white" fill-opacity="0.36"/>
<path d="M91.0899 82.5513L91.5752 85.785C86.0677 84.4566 85.6617 88.3588 83.4652 90.1757C81.6842 91.6503 78.8026 90.5513 77.6428 92.7711C81.4074 97.0064 98.1128 85.8786 96.2009 83.4706L91.095 82.5522L91.0899 82.5513Z" fill="white" fill-opacity="0.36"/>
<path d="M246.223 94.6372C250.211 100.829 256.758 106.188 262.848 110.324L265.854 108.679C264.411 102.369 260.675 105.023 257.282 103.568C253.527 101.953 249.891 96.5322 246.218 94.6363L246.223 94.6372Z" fill="white" fill-opacity="0.36"/>
<path d="M152.499 64.0482C154.626 63.9082 153.919 59.7371 154.872 57.8444C156.144 55.3227 161.463 54.912 161.188 50.8609C153.767 50.3339 149.943 57.528 152.499 64.0482Z" fill="white" fill-opacity="0.36"/>
<path d="M310.446 271.743C311.992 276.566 317.235 278.866 321.437 281.079C319.943 276.492 314.428 274.064 310.446 271.743Z" fill="white" fill-opacity="0.36"/>
<path d="M270.018 50.4058C270.786 51.8321 274.699 61.294 276.733 60.0285C276.41 58.3867 271.919 49.2061 270.018 50.4058Z" fill="white" fill-opacity="0.36"/>
<path d="M254.407 96.0873L248.544 87.663C248.431 90.6096 251.655 95.207 254.407 96.0873Z" fill="white" fill-opacity="0.36"/>
</svg>
