<svg width="408" height="442" viewBox="0 0 408 442" fill="none" xmlns="http://www.w3.org/2000/svg">
<path d="M124.512 140.138C123.617 139.817 118.831 139.09 118.257 139.732L119.303 144.362C102.777 132.263 101.266 110.011 85.9964 96.633C81.4621 92.6628 72.9326 85.3335 68.3363 82.0512C58.7173 75.1823 51.0043 80.3401 40.4814 78.1531C45.0008 88.5243 53.4003 97.8246 59.6846 107.564C67.6654 119.935 76.5169 134.643 81.8539 148.32C86.8011 160.996 90.3547 185.873 103.142 193.231C108.334 196.216 125.28 202.4 131.102 201.6C132.286 201.437 132.267 199.568 134.043 199.112C135.991 198.612 139.598 199.811 140.886 198.507L143.681 189.062C148.312 192.762 150.401 196.402 156.933 197.314C159.008 191.699 155.63 187.199 155.402 182.11C155.29 179.535 156.013 169.884 156.457 167.271C156.89 164.747 159.736 156.514 160.97 154.419C162.802 151.307 173.287 146.895 177.154 144.527C183.303 140.76 186.447 134.967 194.336 135.621C202.866 136.324 206.765 143.373 215.432 141.992C215.275 147.009 203.808 142.809 202.483 143.489C201.602 143.944 201.114 146.046 199.338 146.919C197.398 147.867 194.057 146.489 191.483 149.051C188.982 151.541 192.141 160.468 183.508 156.502C190.039 153.76 188.016 152.794 189.355 148.258C190.134 145.625 192.656 143.481 191.314 140.792C188.576 138.452 180.382 147.557 177.818 149.186C173.061 152.203 164.567 154.141 161.84 159.488C158.327 166.378 159.335 175.116 156.753 182.482C156.931 184.911 159.457 187.976 162.039 187.811C164.579 187.57 167.156 183.274 168.549 182.753C169.808 182.284 177.126 184.238 180.015 183.927C189.267 182.929 197.599 175.405 200.403 166.734L193.727 163.792L195.089 156.857L204.241 161.758L210.398 156.852C200.802 168.366 200.88 188.011 182.832 190.631C175.833 191.649 168.678 186.991 162.01 190.088C164.179 199.411 172.471 205.5 175.733 214.236C177.056 215.331 186.961 213.575 188.808 212.647C191.991 211.05 192.311 208.208 194.564 206.664C198.831 203.736 203.563 200.91 208.029 197.896C222.671 188.022 235.998 203.145 251.385 202.49C252.285 206.719 253.362 212.655 257.654 214.953L271.845 222.552C263.517 229.75 247.692 236.902 236.636 233.873C234.211 233.207 232.261 231.465 229.605 230.911C226.441 230.249 222.405 232.391 218.15 231.004C212.437 229.135 209.363 223.924 203.359 222.72C201.012 222.249 196.053 223.288 192.701 222.9C190.448 222.638 171.951 218.238 173.001 222.319C177.459 225.023 179.049 231.41 182.316 235.205C188.521 242.416 201.125 242.182 208.674 250.252C210.59 252.299 212.753 257.087 214.556 258.298C216.891 259.871 221.596 260.76 224.87 262.989C231.202 267.3 230.751 270.377 240.661 269.592C246.751 269.106 250.475 265.266 255.528 263.117C258.794 261.728 277.969 253.361 279.518 253.781C281.986 254.445 284.712 259.547 287.23 261.206C290.457 263.326 294.093 262.952 297.36 265.745C299.357 267.453 304.08 277.412 306.407 280.628C308.588 283.643 313.039 285.171 312.357 289.924C308.868 288.161 304.783 286.666 300.89 286.252C299.753 286.13 289.991 286.309 289.447 286.487C288.066 286.943 287.454 288.844 286.189 288.841C276.952 288.832 274.484 286.484 267.2 283.522C265.589 282.864 258.07 281.529 256.794 282.435C252.203 289.447 253.642 295.928 255.035 303.64C255.322 305.219 256.858 306.499 257.048 308.389C257.197 309.894 256.147 316.544 253.689 315.896C253.625 309.113 255.549 301.799 249.52 297.275C247.845 298.037 249.289 312.367 250.015 314.744C250.25 315.515 253.001 316.97 252.19 319.784L255.007 317.792C251.173 322.729 257.035 327.369 251.419 331.087C250.509 328.448 245.431 324.427 243.029 323.563C241.605 323.052 239.673 324.756 238.308 324.74C236.843 324.724 230.772 314.531 230.712 312.452C230.646 310.1 232.053 308.473 232.013 306.71C231.982 305.216 231.675 296.28 231.427 295.795C230.901 294.775 228.955 295.216 227.996 295.699C228.839 301.047 226.664 306.121 226.6 311.393C226.56 314.515 228.741 326.437 230.401 328.598C233.182 332.222 241.176 333.495 244.285 337.816C245.467 335.464 247.434 332.606 250.443 332.91L243.045 342.453C238.612 342.641 238.039 338.153 236.042 336.081C229.385 329.186 227.446 327.919 225.574 317.81C223.367 305.862 227.413 294.607 229.018 283.147C229.283 281.254 229.519 273.834 228.576 272.579C223.512 268.377 216.311 264.598 211.675 260.057C209.008 257.444 206.576 252.43 204.191 250.766C198.623 246.876 189.029 246.036 183.14 240.314C178.592 235.897 169.393 218.886 164.79 217.048C162.055 215.959 145.396 217.382 143.124 221.085L144.983 226.883C153.434 232.3 144.154 242.001 140.734 247.804C138.417 251.735 138.073 256.131 133.047 259.496C131.196 257.79 135.283 255.487 135.954 253.694C138.15 247.798 137.048 250.826 140.106 246.237C145.393 238.302 146.41 231.13 139.074 224.082C136.633 226.152 139.301 227.499 139.057 228.406C137.15 235.489 133.886 241 134.836 249.144L122.808 254.875C119.617 259.382 119.272 272.696 112.999 272.808C107.611 272.907 111.433 269.073 112.234 266.74C113.133 264.125 112.396 261.473 115.905 258.52C104.652 257.004 107.81 248.322 110.34 240.306C108.445 238.793 108.802 239.677 107.681 240.384C102.457 243.667 102.79 247.756 100.214 251.466C98.7787 253.53 95.7787 254.422 94.2928 256.921C92.0442 260.713 93.3938 266.25 91.9403 270.274C87.0337 265.436 88.7802 255.394 93.342 251.047C94.873 249.586 97.4953 249.653 98.671 248.459C105.551 241.477 108.076 232.239 119.629 228.077C122.763 226.946 127.164 228.083 130.838 225.934C134.908 223.551 141.805 218.057 135.234 215.071C127.376 211.497 114.703 209.824 106.533 206.557C102.444 204.924 98.6755 201.88 94.6732 200.317C90.5192 198.697 75.7512 193.386 72.2302 194.04L70.3975 196.031C73.1049 199.891 74.2855 205.766 72.2919 210.116C70.6428 213.713 68.6364 213.805 67.5982 219.101C66.4661 224.881 69.4803 224.788 69.6651 226.259C70.6953 234.352 59.762 243.52 52.6597 245.721C52.7781 242.947 58.1548 241.293 59.9008 239.331C65.1915 233.381 60.9636 228.519 63.4674 222.225C61.1446 220.729 62.0025 221.318 60.9459 222.663C58.2856 226.035 55.7945 228.343 54.3487 232.43C48.8297 232.048 46.9776 229.145 49.3474 224.169L45.8465 222.165L41.8782 231.744C39.9353 226.072 43.8426 219.204 46.5007 214.307C43.1936 215.397 38.4278 213.818 35.6079 214.296C33.2149 214.704 18.9765 224.705 17.0353 226.856C12.904 231.434 10.2375 238.449 5.89522 243.014C2.03268 247.079 -13.5304 250.584 -19.3224 250.702C-25.2214 250.821 -31.7892 249.69 -37.414 247.833L-17.2608 248.117C-12.4998 245.313 -6.42668 246.091 -1.79285 242.908C4.09628 238.867 6.50624 231.626 10.9009 226.831C15.7184 221.577 26.8675 219.942 31.1863 214.309C29.9736 213.525 28.7091 212.947 27.2658 212.726C24.31 212.269 16.4148 215.136 14.1222 214.894C10.3336 214.495 6.19622 211.963 1.81465 212.132C-5.61649 212.415 -7.9319 218.159 -12.7758 222.01C-19.1868 227.102 -26.1737 231.3 -31.8139 237.386C-31.7966 239.225 -30.229 238.235 -29.2906 238.134C-25.1128 237.674 -20.9459 236.827 -16.7136 236.683C-15.9878 236.814 -16.5106 237.9 -16.9916 238.27C-19.4908 240.174 -33.3027 239.726 -34.8422 240.62C-36.7 241.701 -37.7793 244.905 -39.8914 246.032L-38.8295 248.242C-42.7659 247.008 -46.3155 252.525 -50.528 252.532C-47.6634 243.969 -42.585 233.935 -36.4611 227.199C-33.4256 223.864 -14.7181 210.403 -10.8072 209.132C-2.64813 206.476 5.09331 210.973 13.1095 211.501C21.9579 212.082 31.757 208.059 40.9577 211.174C46.34 199.813 57.716 200.44 66.0377 191.779C71.5935 185.994 82.4534 171.24 82.5147 163.409C82.5276 161.745 76.6388 145.885 75.4738 143.349C71.3835 134.433 64.772 126.12 60.3752 117.292L49.8357 102.489C48.3954 107.347 48.4591 113.579 47.0197 118.226C44.4951 126.397 34.3947 140.79 26.41 144.155C24.4473 144.98 22.8194 143.463 19.6283 145.185C16.7079 146.764 15.0639 149.273 13.7488 152.257C5.17146 149.012 11.7913 142.044 12.7636 135.352C13.2754 131.82 11.5907 125.864 12.9682 123.159C14.2013 120.735 17.7343 119.619 18.9611 117.89C23.9937 110.792 22.9419 108.816 32.2147 103.684C38.4131 100.254 40.7814 103.668 41.2455 94.7226C41.5822 88.2711 32.4178 75.9636 27.554 72.0691C8.30562 56.6778 -18.4429 51.396 -42.2633 47.9109C-46.7164 47.2561 -54.0034 48.1622 -57.9125 46.8546C-61.6304 45.6084 -68.0719 40.9511 -69.8448 37.7676C-68.645 31.7958 -44.9125 36.6119 -40.0548 37.6007C-25.112 40.6476 -0.970468 47.8698 12.1224 55.2738C20.011 59.7385 26.5368 67.5077 35.3308 71.2611C47.6894 76.5362 57.347 70.2677 69.8148 79.3013C72.0872 80.9462 74.3181 84.8264 76.0758 85.8146C77.4583 86.5901 80.5318 85.3744 83.6632 86.5822C88.6521 88.5148 92.8524 92.5584 97.0162 94.7001C104.595 98.5883 112.549 101.048 119.669 106.42C129 113.463 134.461 129.153 139.633 139.428L136.222 137.015L134.735 140.892C132.793 125.246 118.1 121.148 108.503 111.289C104.255 106.927 103.101 102.116 97.7564 98.8434C94.279 100.142 101.913 108.78 103.231 111.339C105.671 116.082 111.898 134.844 115.651 136.355C119.404 137.866 125.452 138.525 130.077 140.697C134.824 142.928 137.372 147.834 141.134 144.342L142.628 149.235C141.37 152.144 141.397 149.145 141.026 148.946C136.161 146.341 129.364 141.863 124.545 140.12L124.512 140.138ZM120.641 109.954C116.855 107.041 110.542 105.192 106.45 102.355L128.632 123.616C130.114 123.512 128.346 120.519 128.044 119.97C126.988 118.079 122.027 111.019 120.645 109.957L120.641 109.954ZM135.343 134.21L133.149 129.535L132.182 131.339L135.343 134.21ZM268.602 221.982L256.275 216.736L245.25 228.2C248.172 231.999 269.248 224.011 268.602 221.982ZM245.747 222.362L252.544 214.556C247.933 213.823 239.322 213.768 235.28 212.125C232.738 211.092 231.292 208.852 228.668 207.576C223.729 205.177 210.418 201.978 205.493 204.636C204.243 205.309 195.596 210.383 195.113 210.757C192.941 212.456 190.93 216.774 187.947 218.613C204.255 222.643 221.406 220.774 238.106 221.156C240.202 221.205 244.296 222.817 245.75 222.358L245.747 222.362ZM37.868 115.999L26.0345 123.612L18.1885 127.092L17.7936 139.189C23.2136 137.752 23.9614 131.028 27.3231 127.832C29.2324 126.017 31.6534 127.043 32.3814 126.278C34.4466 124.095 35.8091 118.655 37.8634 115.997L37.868 115.999ZM290.758 276.863C291.892 276.462 293.746 273.408 296.274 273.695C294.582 263.184 284.072 264.639 278.959 256.741C276.541 258.437 254.537 266.421 255.349 268.756C259.408 270.565 266.319 270.472 267.78 265.696L269.911 264.92C273.815 265.697 275.68 273.562 277.438 274.65C278.59 275.36 289.774 277.215 290.758 276.863ZM285.614 282.64C283.512 282.359 275.359 277.882 274.353 279.518C273.576 287.927 280.504 283.046 285.614 282.64ZM273.096 281.8C269.01 276.035 267.017 276.135 260.447 276.176C254.544 280.134 265.24 280.302 268.563 281.162C270.457 281.654 271.98 285.436 273.096 281.8ZM236.971 274.259C229.124 269.53 232.621 276.462 232.11 280.288C232.006 281.077 228.283 289.702 231.61 288.839C233.773 286.462 237.181 284.786 238.015 281.38C238.27 280.332 234.504 277.007 236.971 274.259ZM69.5906 199.751C67.6951 198.073 67.9128 199.351 66.9339 199.847C57.3401 204.731 53.9989 212.511 47.7271 220.833C55.8107 223.866 65.7896 216.579 69.0597 209.482C70.3833 206.614 68.5936 202.735 69.5835 199.753L69.5906 199.751Z" fill="#F7F7F7" fill-opacity="0.41"/>
<path d="M351.83 342.327C351.878 342.822 353.017 343.655 353.079 344.573C353.696 353.822 341.913 352.35 337.159 354.777C334.597 356.084 333.062 359.027 330.263 359.774C322.563 361.837 313.122 356.617 306.927 352.303C295.8 344.55 280.826 320.671 273.248 308.11C272.479 306.837 272.303 305.329 271.849 303.942C275.733 305.494 279.865 304.019 283.753 305.333C287.965 306.756 291.83 310.414 296.144 310.801C300.631 311.204 308.535 307.638 312.131 304.973C318.161 308.407 324.839 314.252 331.503 316.249C340.77 319.03 350.798 312.203 353.371 327.695C354.365 333.687 351.424 338.298 351.821 342.322L351.83 342.327ZM346.248 343.22C342.655 341.002 340.905 336.952 338.355 333.722C337.665 332.842 335.934 332.695 335.095 331.665C333.135 329.238 332.998 323.969 330.081 321.656C327.8 320.423 323.629 323.666 321.453 323.48C319.108 323.28 317.473 321.502 315.383 321.156C310.608 320.376 303.735 319.739 301.71 325.556C300.305 329.589 308.77 348.311 312.111 350.745C322.638 358.406 332.053 356.476 342.341 350.504C339.57 348.14 335.41 347.807 332.613 346.15C329.4 344.248 326.355 339.422 323.639 338.055C320.616 336.536 315.193 338.892 312.805 335.262C316.201 335.04 323.817 334.609 326.744 335.549C331.859 337.191 339.249 345.922 346.239 343.215L346.248 343.22Z" fill="#F7F7F7" fill-opacity="0.41"/>
<path d="M171.102 308.782C170.523 308.906 162.688 308.997 162.261 308.892C153.32 306.667 156.883 281.754 158.85 275.02L172.17 254.681L170.13 264.83C165.837 271.713 163.69 279.541 163.062 287.584C162.827 290.642 163.396 301.742 164.595 303.95C165.641 305.882 171.336 303.754 172.76 302.956C184.98 296.084 177.73 284.561 175.836 274.218C176.864 276.657 181.92 277.364 182.102 277.685C182.875 279.025 181.735 287.187 181.896 287.689C182.121 288.402 183.585 288.981 183.861 289.732C184.571 291.708 183.569 293.998 185.99 294.86L186.304 285.423C182.378 279.557 186.751 264.512 184.639 259.353C183.302 256.092 178.004 254.528 177.83 250.693C183.53 250.978 188.716 258.376 191.538 263.012C194.098 267.215 195.224 270.252 194.215 275.206C193.481 278.823 189.728 292.733 188.115 295.382C186.026 298.82 175.031 307.961 171.099 308.787L171.102 308.782Z" fill="#F7F7F7" fill-opacity="0.41"/>
<path d="M-10.2227 236.647C-7.78263 233.62 -3.94559 231.793 -1.5529 228.712C2.1826 223.904 3.42219 216.306 11.1643 216.476C7.52025 220.893 7.12007 226.208 2.84368 230.562C0.0890728 233.361 -6.19985 236.432 -10.2181 236.649L-10.2227 236.647Z" fill="#F7F7F7" fill-opacity="0.41"/>
</svg>
