<svg width="1042" height="156" viewBox="0 0 1042 156" fill="none" xmlns="http://www.w3.org/2000/svg">
<path d="M175.561 3.52075H217.631V6.44075H177.981C177.171 5.47075 176.371 4.49075 175.561 3.52075Z" fill="black" stroke="black" stroke-miterlimit="10"/>
<path d="M217.63 3.5207C223.48 2.5407 229.32 1.5707 235.17 0.590698V135.071L217.63 137.991V3.5207Z" fill="black" stroke="black" stroke-miterlimit="10"/>
<path d="M178.11 6.44069C176.73 15.6507 172.73 47.2007 172.73 102.911C172.73 126.301 161.04 137.991 146.42 137.991L143.5 135.071C158.12 135.071 169.81 126.301 169.81 99.9907C169.81 38.6007 175.66 3.52069 175.66 3.52069" fill="black"/>
<path d="M178.11 6.44069C176.73 15.6507 172.73 47.2007 172.73 102.911C172.73 126.301 161.04 137.991 146.42 137.991L143.5 135.071C158.12 135.071 169.81 126.301 169.81 99.9907C169.81 38.6007 175.66 3.52069 175.66 3.52069" stroke="black" stroke-miterlimit="10"/>
<path d="M546.941 3.52069H589.011V6.44069H549.361C548.551 5.47069 547.751 4.49069 546.941 3.52069Z" fill="black" stroke="black" stroke-miterlimit="10"/>
<path d="M589.021 3.5207C594.871 2.5407 600.711 1.5707 606.561 0.590698V135.071L589.021 137.991V3.5207Z" fill="black" stroke="black" stroke-miterlimit="10"/>
<path d="M549.401 6.44069C548.021 15.6507 544.021 47.2007 544.021 102.911C544.021 126.301 532.331 137.991 517.711 137.991L514.791 135.071C529.411 135.071 541.101 126.301 541.101 99.9907C541.101 38.6007 546.951 3.52069 546.951 3.52069" fill="black"/>
<path d="M549.401 6.44069C548.021 15.6507 544.021 47.2007 544.021 102.911C544.021 126.301 532.331 137.991 517.711 137.991L514.791 135.071C529.411 135.071 541.101 126.301 541.101 99.9907C541.101 38.6007 546.951 3.52069 546.951 3.52069" stroke="black" stroke-miterlimit="10"/>
<path d="M292.32 3.52075H334.39V6.44075H294.74C293.93 5.47075 293.13 4.49075 292.32 3.52075Z" fill="black" stroke="black" stroke-miterlimit="10"/>
<path d="M334.4 3.5207C340.25 2.5407 346.09 1.5707 351.94 0.590698V135.071L334.4 137.991V3.5207Z" fill="black" stroke="black" stroke-miterlimit="10"/>
<path d="M294.78 6.4507C293.4 15.6607 289.4 47.2107 289.4 102.921C289.4 126.311 277.71 138.001 263.09 138.001L260.17 135.081C274.79 135.081 286.48 126.311 286.48 100.001C286.48 38.6107 292.33 3.5307 292.33 3.5307" fill="black"/>
<path d="M294.78 6.4507C293.4 15.6607 289.4 47.2107 289.4 102.921C289.4 126.311 277.71 138.001 263.09 138.001L260.17 135.081C274.79 135.081 286.48 126.311 286.48 100.001C286.48 38.6107 292.33 3.5307 292.33 3.5307" stroke="black" stroke-miterlimit="10"/>
<path d="M139.41 68.1507C139.41 114.451 107.58 137.601 69.96 137.601C32.34 137.601 0.5 114.451 0.5 68.1507C0.5 21.8507 32.33 1.5907 69.95 1.5907C107.57 1.5907 139.4 21.8507 139.4 68.1507H139.41ZM122.04 68.1507C122.04 21.8507 90.21 4.4807 64.16 4.4807C29.43 4.4807 17.86 36.3107 17.86 68.1507C17.86 114.451 49.69 134.711 75.74 134.711C110.47 134.711 122.04 99.9807 122.04 68.1507Z" fill="black" stroke="black" stroke-miterlimit="10"/>
<path d="M489.79 1.5907V134.711L472.43 137.601V33.7307L394.3 134.211V134.721L376.94 137.611V4.4907L394.3 1.5907V129.491L472.43 29.0107V4.4907L489.79 1.5907Z" fill="black" stroke="black" stroke-miterlimit="10"/>
<path d="M748.681 71.0507C748.681 117.351 716.851 137.611 679.231 137.611C663.201 137.611 643.481 128.801 631.561 120.381L636.581 111.571C648.861 125.611 666.381 133.981 685.021 134.721C719.751 134.721 731.321 102.891 731.321 71.0507C731.301 67.1807 731.041 63.3107 730.531 59.4707C702.511 59.7007 678.391 71.0507 650.301 71.0507V68.1607C678.261 68.1607 702.291 56.9307 730.141 56.6107C724.261 20.5407 696.601 4.4907 673.451 4.4907C652.621 4.4907 642.391 24.7507 641.621 25.2107L636.601 16.0607C645.301 7.3807 659.191 1.5907 679.251 1.5907C716.871 1.5907 748.691 24.7407 748.691 71.0407L748.681 71.0507Z" fill="black" stroke="black" stroke-miterlimit="10"/>
<path d="M886.54 1.5907V134.711L869.18 137.601V59.4707C841.84 59.4707 818.39 71.0507 791.05 71.0507V134.721L773.69 137.611V4.4907L791.05 1.6007V68.1607C818.4 68.1607 841.84 56.5807 869.18 56.5807V4.4907L886.54 1.5907Z" fill="black" stroke="black" stroke-miterlimit="10"/>
<path d="M1041.44 134.721V152.081L1024.08 154.971V137.611H919.901V152.081L902.541 154.971V134.711H917.011C931.481 134.711 943.051 126.031 943.051 99.9807C943.051 39.2107 948.841 4.4807 948.841 4.4807H1009.61L1026.97 1.5907V134.711H1041.44V134.721ZM1009.61 134.721V7.3907H951.271C949.911 16.5007 945.941 47.7407 945.941 102.891C945.941 119.401 940.041 129.981 931.421 134.721H1009.6H1009.61Z" fill="black" stroke="black" stroke-miterlimit="10"/>
</svg>
