<svg width="36" height="36" viewBox="0 0 36 36" fill="none" xmlns="http://www.w3.org/2000/svg">
<rect x="0.5" y="0.5" width="35" height="35" rx="17.5" stroke="black"/>
<path d="M14.2168 21.6646C16.6157 24.0635 19.5293 25.9146 21.9116 25.9146C22.9824 25.9146 23.9204 25.541 24.6758 24.7109C25.1157 24.2212 25.3896 23.6484 25.3896 23.084C25.3896 22.6689 25.2319 22.2705 24.8418 21.9883L22.2935 20.1787C21.9033 19.9131 21.5796 19.7803 21.2808 19.7803C20.9072 19.7803 20.5669 19.9961 20.1851 20.3696L19.5957 20.9507C19.5044 21.042 19.3882 21.0835 19.2803 21.0835C19.1558 21.0835 19.0312 21.0337 18.9482 20.9922C18.4336 20.7183 17.5537 19.9629 16.7319 19.1494C15.9185 18.3359 15.1631 17.4561 14.8975 16.9414C14.856 16.8501 14.8062 16.7339 14.8062 16.6094C14.8062 16.5015 14.8394 16.3936 14.9307 16.3022L15.52 15.6963C15.8853 15.3145 16.1094 14.9824 16.1094 14.6006C16.1094 14.3018 15.9683 13.978 15.6943 13.5879L13.9097 11.0728C13.6191 10.6743 13.2124 10.5 12.7642 10.5C12.2163 10.5 11.6519 10.749 11.1621 11.2222C10.3569 11.9941 10 12.9487 10 14.0029C10 16.3853 11.8179 19.2739 14.2168 21.6646Z" fill="black"/>
</svg>
