<svg width="48" height="48" viewBox="0 0 48 48" fill="none" xmlns="http://www.w3.org/2000/svg">
<g clip-path="url(#clip0_9599_991)">
<path d="M22.0132 0.0703789C41.4062 -1.36453 54.6011 19.5689 44.5388 36.3847C35.6873 51.177 14.3631 52.0104 4.41098 37.9188C-6.28711 22.7682 3.59468 1.43331 22.0132 0.0703789ZM21.534 2.14996C6.93334 3.43931 -1.93727 19.4105 3.80714 32.763C10.9206 49.2973 34.2464 50.6043 43.0563 34.8986C51.9365 19.0682 39.4413 0.567879 21.534 2.14996Z" fill="black"/>
<path d="M28.5912 19.8616C28.3068 19.6601 27.4586 20.2631 27.171 20.4311C24.0848 22.2372 21.1535 24.7023 18.1007 26.5451C16.9394 27.2474 16.3835 27.6329 14.9378 27.5321C14.1423 27.4761 9.77327 26.2571 9.33717 25.7836C8.695 25.0862 9.40586 24.4351 10.0576 24.0912C17.3068 21.5333 24.9921 16.7087 32.3452 14.7347C33.8883 14.3203 34.9825 14.0292 35.1263 16.08C34.4841 20.7143 33.8691 25.3645 33.0161 29.9636C32.7701 31.2897 32.3995 34.5259 31.6295 35.4537C30.8595 36.3815 29.8292 36.0584 28.9218 35.6025C27.219 34.7451 22.5656 31.5745 21.0976 30.3203C20.1263 29.4901 20.0289 29.0614 20.8404 28.0104C22.8468 25.5565 26.6614 23.2338 28.433 20.7335C28.6774 20.3879 28.7573 20.2935 28.588 19.86L28.5912 19.8616Z" fill="black"/>
</g>
<defs>
<clipPath id="clip0_9599_991">
<rect width="48" height="48" fill="white"/>
</clipPath>
</defs>
</svg>
