<svg width="1920" height="936" viewBox="0 0 1920 936" fill="none" xmlns="http://www.w3.org/2000/svg">
<g clip-path="url(#clip0_1_616)">
<path d="M1837.01 635.027C1829.69 631.078 1793.37 616.317 1786.61 616.354C1783.45 616.369 1771.13 620.131 1768.04 621.664C1763.98 623.669 1760.62 628.943 1758.55 629.831C1754.6 631.515 1759.3 625.872 1759.08 625.701L1749.73 628.829L1750.82 634.986L1754.95 635.625C1754.74 639.044 1755.18 642.525 1754.94 645.933C1754.77 648.256 1753.37 650.35 1753.33 652.142C1753.28 654.377 1754.92 656.574 1754.71 659.193C1753.91 668.717 1739.98 677.836 1732.39 682.585C1725.19 687.095 1720.03 687.495 1713.47 690.669C1708.56 693.044 1706.03 698.375 1700.91 700.427C1699.1 696.4 1700.98 693.127 1700.95 689.573C1700.83 676.012 1700.2 669.174 1707.41 656.59C1711.5 649.446 1713.32 651.14 1718.05 647.497C1723.42 643.351 1728.82 636.43 1733.81 633.141C1742.33 627.514 1751.54 625.727 1760.51 621.404C1763.13 620.141 1766.86 618.879 1768.45 616.369C1765.46 617.414 1762 617.024 1759.03 617.85C1754.88 619.009 1751.33 622.147 1747.17 622.609C1734.31 624.033 1718.34 617.985 1704.82 621.627C1703.9 621.872 1704.3 624.521 1699.85 623.004C1695.64 630.086 1694.5 639.283 1689.47 645.933C1684.34 652.724 1674.51 656.98 1668.66 662.503C1665.95 665.054 1663.06 670.925 1660.36 672.905C1654.16 677.462 1644.27 672.822 1638.02 672.364C1632.21 671.938 1625.95 675.243 1619.87 672.39C1621.38 667.953 1626.68 667.558 1630.09 663.417C1631.91 661.214 1637.64 652.127 1638.98 649.461C1641.88 643.715 1641.9 636.596 1646.88 631.931C1636.07 632.606 1625.25 637.667 1614.39 635.822C1608.81 634.877 1602.33 628.304 1596.67 625.498C1588.92 621.658 1582.36 620.765 1574.31 618.754C1573.24 618.484 1571.76 618.894 1572.07 617.398C1575.04 618.188 1575 615.865 1576.49 615.018C1584.74 610.326 1591.85 609.09 1599.35 605.728C1603.4 603.915 1607.82 598.522 1612.28 596.843C1620.71 593.663 1634.04 594.105 1642.75 596.074C1658.3 599.587 1669.37 611.818 1683.24 618.416C1679.88 605.822 1670.58 595.794 1664.36 584.872C1662.38 581.381 1651.88 562.099 1654.02 559.73C1656.05 558.228 1659.48 557.215 1661.95 557.199C1675 557.111 1699.15 562.468 1707.67 572.75C1716.33 583.189 1721.3 601.114 1713.38 613.231C1716.35 615.392 1736.97 609.376 1741.98 609.095C1747.3 608.799 1752.05 610.602 1757.58 610.165C1774.36 608.846 1781.11 606.637 1798.58 611.677C1803.75 613.163 1807.28 615.543 1812.08 617.382C1807.55 612.815 1803.82 611.828 1800.1 606.009C1794.33 596.978 1786.99 580.96 1788.27 570.251C1789.87 556.939 1793.3 556.191 1800.63 547.306C1807.36 539.144 1813.77 530.638 1820.2 522.237L1827.66 507.387C1827.09 524.824 1839.68 538.525 1844.52 553.349C1849.14 567.492 1843.12 596.329 1839.88 611.423C1838.95 615.751 1835.35 618.848 1837.01 624.968C1837.42 626.47 1858.64 641.252 1860.39 645.44L1862.99 646.458C1866.74 637.48 1872.76 629.592 1877.73 621.212C1881.64 614.618 1896.86 589.798 1897.79 584.353C1898.05 582.83 1896.96 580.986 1897.23 579.728C1897.45 578.705 1899.54 578.861 1900.21 577.276C1901.51 574.2 1901.52 568.973 1903.33 564.79C1906.71 557.012 1915.3 550.039 1917.37 541.445C1918.53 536.613 1917.77 532.504 1918.21 527.755C1918.31 526.606 1918.68 522.024 1920.16 521.914V538.52L1925.31 540.183L1921.19 550.445L1927.37 551.047C1928.34 553.697 1925.97 555.854 1925.65 557.854C1925.41 559.428 1926.79 560.675 1925.88 563.367C1925.02 565.913 1918.81 571.633 1916.55 573.836C1912.66 577.629 1903.16 584.072 1900.39 587.792C1897.76 591.32 1896.04 599.566 1893.88 604.128C1884.88 623.03 1875.43 643.065 1863.88 660.31C1860.53 665.319 1856.56 669.943 1852.61 674.469C1858.85 673.315 1868.23 672.541 1873.34 668.712C1876.78 666.13 1880.14 660.076 1883.25 656.819C1892.14 647.544 1904.16 636.763 1913.91 628.278C1919.1 623.747 1927.64 616.161 1934.7 617.907C1923.87 625.716 1915.23 635.781 1905.62 644.91C1901.4 648.921 1896.5 651.581 1892.07 656.289C1888.51 660.071 1877.44 671.232 1888.94 669.85C1895.65 663.074 1902.89 656.595 1910.31 650.636C1911.72 649.508 1921.4 641.512 1922.24 642.317C1919.01 648.562 1912.86 652.704 1908.2 657.858C1901.82 664.908 1893.7 676.433 1886.96 682.309C1884.77 684.226 1883.15 684.367 1880.67 685.375C1894.81 689.36 1904.9 677.493 1917.81 674.718C1918.86 674.495 1921.46 673.663 1921.2 675.503C1910.27 676.682 1899.72 686.627 1889.4 687.853C1883.46 688.56 1879.08 686.788 1873.94 686.845C1867.58 686.913 1858.96 688.835 1852.09 689.001C1848.47 689.09 1844.82 688.97 1841.2 689.001L1845.37 686.419C1840.33 683.832 1836.23 691.303 1832.83 692.633C1831.48 693.163 1830.08 692.124 1828.8 692.675C1825.52 694.088 1821.25 697.32 1819.38 700.417L1826.64 697.829L1805.78 715.386L1772.62 735.701C1786.84 732.714 1800.45 726.136 1814.39 721.901C1831.38 716.742 1860.08 708.642 1877.16 706.761C1882.49 706.174 1888 707.114 1893.41 706.381C1905.15 704.797 1918.1 694.441 1930.57 695.242C1922.77 705.031 1906.39 710.325 1894.2 710.808L1910.03 717.298C1916.4 720.566 1921.59 724.982 1922.24 732.589C1920.46 731.732 1920.3 729.238 1918.64 727.378C1913.2 721.293 1892.52 711.624 1884.33 711.754C1860.1 712.144 1831.2 729.264 1807.16 733.348L1798.61 736.73C1809.55 738.05 1820.06 741.609 1829.84 746.545C1832.5 747.891 1833.88 750.182 1836.32 751.492C1868.04 768.529 1902.73 781.238 1933.71 799.522C1935.85 801.657 1934.27 801.335 1932.51 800.717C1915.28 794.679 1898.74 786.646 1882.01 780.583C1879.59 779.705 1875.8 777.808 1873.43 778.775C1889.29 803.45 1899.9 831.102 1904.76 860.089C1918.93 865.94 1931.22 875.017 1943.04 884.645V901.77C1930.4 903.557 1919.65 896.315 1908.17 892.402L1903.06 896.143C1897.73 893.161 1879 895.821 1876.55 889.815C1876.22 886.323 1881.41 889.508 1883.14 889.357C1883.55 889.321 1887.56 884.78 1889.09 883.678C1890.62 882.577 1892.88 882.951 1894.26 881.319C1899.64 874.949 1890.98 870.839 1891.14 865.955C1891.15 865.446 1894.89 857.242 1895.33 856.702C1896.82 854.867 1898.88 855.299 1899.23 854.919C1901.08 852.893 1894.76 840.906 1893.68 837.415C1891.27 829.585 1890.9 820.513 1887.99 813.005C1886.4 808.916 1870.42 776.405 1868.63 775.252C1866.85 774.098 1864.18 774.286 1862.3 773.278C1858.06 771.002 1853.71 767.23 1849.51 765.292C1839.54 760.699 1841.14 762.34 1832.21 755.586C1825.13 750.229 1799.12 738.445 1790.66 737.847C1786.31 737.541 1766.11 740.123 1760.73 740.954C1755.66 741.739 1745.87 748.665 1740.69 749.99C1737.42 750.826 1727.08 751.985 1723.25 752.292C1720.67 752.5 1718.05 752.224 1715.48 752.302C1715.48 744.124 1720.93 745.324 1725.57 743.189C1730.87 740.752 1732.86 737.39 1739.49 739.261C1741.67 739.879 1741.02 742.046 1742.96 742.009C1744.9 741.973 1755.92 738.227 1757.98 737.151C1766.49 732.703 1793.29 708.746 1798.42 700.744C1805.25 690.082 1812.01 678.948 1818.78 668.151C1824.08 659.718 1830.33 650.646 1828.75 640.218C1830.28 640.654 1830.73 645.653 1830.8 646.967C1831.35 657.177 1823.9 670.603 1818.88 679.67C1815.02 686.663 1808.88 692.405 1806.92 700.401C1812.29 699.242 1816.37 696.094 1819.83 692.036C1823.63 687.583 1825.8 683.452 1830.8 679.119C1836.37 674.282 1857.76 661.266 1859.5 655.805C1859.92 654.486 1860.01 654.018 1859.42 652.703C1858.32 650.256 1840.33 636.794 1837.05 635.022C1837.31 635.147 1840.15 635.386 1840.16 634.508C1838.73 632.788 1837.36 631.499 1834.97 631.92C1834.82 632.035 1836.88 634.944 1837.05 635.022L1837.01 635.027ZM1798.56 569.648C1798.48 567.887 1798.39 566.188 1799.14 564.51C1804.12 553.25 1814.85 542.604 1818.3 530.207C1813.26 538.079 1800.41 550.325 1797.3 558.519C1796.26 561.257 1796.11 565.263 1796.49 568.11C1796.74 569.981 1796.11 569.789 1798.56 569.648H1798.56ZM1828.68 545.779C1824.96 543.181 1819.74 560.556 1819.45 563.008C1818.38 572.454 1821.23 586.213 1826.42 594.235C1827.12 595.331 1827.54 596.88 1829.2 596.641C1832.24 588.883 1829.26 581.287 1829.75 573.291C1830.39 562.967 1836.44 555.682 1828.67 545.779H1828.68ZM1907.66 564.458H1905.6L1904.56 568.604L1907.66 565.996V564.458H1907.66ZM1711.27 587.288C1710.29 580.31 1706.31 574.73 1699.86 571.722L1706.68 583.069L1711.27 587.288ZM1673.86 616.364C1664.77 611.651 1657.05 604.975 1646.32 603.899C1639.36 603.203 1624.43 604.055 1617.33 605.016C1614.02 605.463 1609.13 607.682 1606.35 609.667C1605.9 611.231 1613.74 620.344 1615.28 621.404C1616.94 622.542 1633.95 627.602 1636.01 627.691C1637.96 627.774 1639.98 626.652 1642.13 626.672C1645.66 626.709 1650.11 627.603 1652.83 627.556C1654.32 627.53 1655.29 626.672 1655.16 625.171C1655.01 624.553 1650.68 621.866 1649.63 621.342C1648.09 620.567 1639.92 616.878 1638.8 616.587C1635.99 615.85 1630.45 617.897 1631.27 614.265C1633.76 612.374 1644.52 616.432 1647.29 616.348C1647.95 616.328 1647.87 614.488 1649.15 613.917C1655.02 611.272 1665.38 621.721 1673.34 618.416L1673.85 616.354L1673.86 616.364ZM1808.94 619.471L1802.72 617.393C1802.88 619.061 1808.35 622.137 1808.94 619.471ZM1622.95 630.886C1615.01 631.349 1611.53 622.386 1605.58 618.588L1590.75 620.51L1610.43 631.453C1613.33 632.185 1616.38 632.029 1619.33 631.91C1620.59 631.858 1623.19 632.7 1622.95 630.886H1622.95ZM1660.36 624.641C1659.61 622.708 1657.02 621.435 1655.17 621.549C1656.01 623.721 1658.03 625.02 1660.36 624.641ZM1708.16 663.038C1719.45 660.705 1728.86 650.568 1733.09 640.218C1725.89 649.498 1712.56 652.106 1708.16 663.038ZM1718.56 683.8C1720.5 685.816 1744.13 666.254 1747.63 664.607C1745.39 661.599 1739.99 664.373 1737.31 665.698C1735.5 666.597 1722.1 675.472 1721.13 676.516C1719.33 678.459 1718.54 681.192 1718.56 683.8H1718.56ZM1857.79 678.631C1851.33 678.599 1845.62 677.051 1842.21 683.8C1846.76 682.444 1851.4 682.663 1856.12 682.839L1857.79 678.631ZM1713.35 681.732L1703.08 685.993L1702.97 695.216L1713.94 685.863L1713.34 681.727L1713.35 681.732ZM1817.26 702.5C1807.24 704.677 1798.42 712.003 1791.29 719.085L1805.35 711.858L1817.27 702.5H1817.26ZM1743.49 744.015C1739.07 744.363 1732.07 744.758 1728.94 748.145C1733.66 746.753 1741.15 748.888 1743.49 744.015Z" fill="#506C46"/>
<path d="M258.625 797.973C250.968 802.883 241.299 806.603 232.078 808.297L231.917 811.254L233.694 811.971C230.648 815.114 231.308 820.596 230.066 824.965C228.548 830.302 226.292 835.341 224.286 840.48L221.182 840.054C217.705 837.571 224.343 828.551 224.343 825.48V809.394L228.486 820.804C228.85 817.686 231.319 813.057 230.607 810.074C230.42 809.295 227.046 809.576 229.515 807.004C230.586 805.886 232.192 806.172 233.211 805.279C241.206 798.264 240.811 799.158 249.986 795.147C251.165 794.632 259.451 789.239 254.482 789.166L257.596 783.466C248.364 782.464 238.617 778.146 229.817 776.431C227.592 776 217.476 774.831 216.53 776.161C216.239 776.572 216.982 778.115 216.53 779.237C216.078 780.359 214.004 780.817 214.373 782.453C216.301 791.073 226.141 795.282 228.491 803.169L218.266 796.098C217.866 800.322 213.052 796.529 210.521 797.106C206.877 797.932 198.939 813.389 198.731 817.333C198.648 818.918 199.262 827.163 199.615 828.384C200.639 831.917 208.53 834.744 208.598 842.07C208.634 845.863 203.826 858.484 201.705 862.022C197.707 868.699 182.908 875.729 175.506 878.404C170.141 880.348 160.234 879.641 157.832 886.183C156.101 886.463 156.699 883.652 156.772 882.53C158.144 861.56 176.863 842.782 193.71 832.203C194.848 831.486 195.971 831.06 197.333 831.164C196.242 825.08 194.921 817.203 196.569 811.212C198.7 803.486 213.525 781.258 199.418 777.689C197.063 777.091 196.439 777.263 194.173 777.668C189.349 778.525 172.787 785.15 167.527 787.41C156.486 792.149 147.711 800.483 137.081 805.783C122.027 813.285 106.849 814.782 91.2904 819.203C70.1754 825.204 41.9389 837.238 20.1274 835.378C12.3873 834.718 4.54323 831.045 -3.21764 830.14L-0.644545 826.935C31.2515 834.411 61.2553 817.624 92.382 813.535C91.8882 807.783 87.6725 809.685 84.3872 806.988C76.3352 800.384 73.4243 789.244 63.4178 783.83C56.3898 780.027 47.3866 778 39.3814 778.245C39.5841 776.686 40.8421 776.566 42.0741 776.276C69.141 769.807 80.8472 752.442 111.938 760.278C118.227 761.862 132.481 767.723 136.743 772.342C138.656 774.415 143.163 785.462 143.906 785.586C149.146 784.568 152.951 780.822 157.863 778.795C168.109 774.571 180.112 773.953 191.095 773.054C185.679 760.911 160.821 776.54 166.154 758.542C162.214 757.68 161.658 762.901 157.858 761.166C154.656 759.706 146.323 745.475 141.796 742.908C133.9 738.434 124.486 739.224 115.743 736.756C91.5659 729.924 70.0558 713.962 43.5971 710.221C28.0858 708.028 19.1189 711.941 2.80185 706.34C-7.55812 702.786 -12.881 696.172 -22.9499 693.137C-23.1734 691.184 -20.8499 692.342 -19.7894 692.571C-9.82972 694.748 0.0416164 698.427 10.0377 700.152C27.935 703.238 46.7576 703.202 64.551 707.977C86.6432 713.905 105.071 726.271 126.669 732.584C127.413 731.919 120.795 724.203 119.932 723.237C105.596 707.093 86.7212 696.213 69.7907 683.021C63.8856 682.907 57.1852 682.252 51.358 682.792C40.8629 683.759 26.8382 688.482 15.9012 689.926C13.3593 690.264 10.7603 689.978 8.22354 690.025L14.4458 687.973L-22.9447 672.38C-23.2046 670.572 -20.5484 671.325 -19.4308 671.465C-6.53928 673.071 8.20794 682.231 20.4237 686.757L24.8421 685.364C18.0949 680.75 10.6979 676.719 4.17936 671.762C0.826538 669.216 -8.473 662.435 -8.50419 658.388C-8.55617 651.067 -2.35475 657.764 0.431477 659.931C1.20081 660.097 1.13843 658.845 0.935701 658.393C-1.3463 653.306 -13.4321 650.62 -10.9941 644.359C-0.337852 646.91 7.74531 653.4 16.4263 659.526C23.8337 664.753 28.7927 671.814 39.3866 671.341L26.4068 664.082C19.306 658.928 11.7635 648.521 5.03186 643.917C-1.28912 639.594 -7.25662 639.589 -12.1637 632.029C-12.7355 631.146 -14.7212 629.738 -13.0994 628.813C-6.94473 631.099 0.821341 634.762 6.0663 638.732C13.3905 644.271 17.4763 653.821 24.3223 658.897C27.9038 661.552 32.5822 662.892 36.4028 665.511C45.4945 671.736 53.1306 681.608 65.3619 679.644C57.3931 670.878 47.7661 663.635 39.8908 654.761C18.6511 630.824 5.67644 601.795 -1.12798 570.688L13.5361 608.44C24.4626 631.801 47.2254 662.347 68.5744 676.973C71.7141 679.124 76.6939 680.506 78.243 681.649C78.7212 682.003 81.9805 689.614 85.1046 687.443C73.445 671.964 69.2085 652.038 68.4808 632.954L41.4711 646.432C42.2196 636.139 53.3853 633.848 60.2469 628.091C59.436 621.082 57.4243 614.306 56.1403 607.401C51.5347 582.555 41.9805 552.055 50.7758 527.567C53.9519 518.735 61.2137 511.84 62.2586 502.191L67.4204 511.788C83.7062 528.087 109.037 560.28 100.46 584.462C97.0656 594.027 84.8343 599.711 86.1546 612.192C100.959 609.246 115.509 605.806 130.781 606.954C131.14 602.673 132.767 597.482 131.841 593.211C131.737 592.739 126.732 588.042 125.598 585.771C123.254 581.074 120.634 568.1 120.665 562.899C120.702 557.152 133.817 520.48 137.242 515.331C139.264 512.292 154.578 497.769 157.354 497.011L168.572 515.866C182.711 554.092 168.982 564.302 143.319 588.857C137.195 594.718 131.337 595.872 131.873 607.001C138.937 606.674 146.157 607.443 153.216 607.048C162.048 606.554 166.971 606.279 173.931 600.756C185.897 591.268 188.652 574.07 201.58 564.026C214.357 554.097 228.943 551.931 244.595 549.909L243.919 556.009L240.062 556.259C233.57 576.985 230.206 604.351 210.261 616.244C209.325 616.806 208.208 615.704 208.764 618.416L226.734 620.365C229.499 619.596 236.595 604.611 242.095 601.374C256.686 592.791 304.26 593.253 316.361 605.915C328.197 618.302 309.302 626.989 298.495 627.701C295.147 627.919 292.481 626.371 289.393 626.74C286.243 627.114 282.287 630.221 277.749 630.762C270.04 631.681 261.276 630.32 253.447 630.886L276.293 664.628C276.605 666.872 276.065 665.89 274.734 666.129C269.24 667.117 260.579 670.364 256.026 670.317C252.616 670.286 249.05 667.802 245.567 667.283C242.001 666.753 238.549 667.527 234.682 666.737C215.615 662.84 206.825 638.877 196.288 625.119C187.93 625.041 179.561 627.774 170.926 626.636C163.15 625.607 158.087 619.528 150.581 618.432L155.841 623.025C169.616 631.681 191.179 641.839 195.82 658.855C199.017 670.593 192.795 681.338 193.169 693.142C191.21 693.48 192.686 691.121 191.979 690.228C191.683 689.854 184.608 688.206 182.809 687.417C169.091 681.426 155.399 671.434 146.615 659.219C141.749 652.459 138.162 647.695 139.425 638.919C139.904 635.599 142.222 632.164 142.295 629.353C142.383 625.929 140.325 620.786 138.973 617.554C135.948 615.709 105.908 620.567 100.47 621.814C97.0136 622.609 76.3404 628.99 74.7134 630.33C73.0864 631.671 73.653 633.474 73.9077 635.277C75.0149 643.169 92.2313 692.612 96.7069 697.652C99.3476 700.63 102.732 701.29 105.377 703.519C114.391 711.115 130.287 723.455 136.457 732.672C139.103 736.621 139.659 744.83 145.97 740.913C144.806 734.917 147.056 735.135 149.536 731.54C149.266 731.919 148.34 735.468 148.491 735.675L152.65 736.725L153.169 731.545C155.644 733.857 156.891 737.878 160.962 737.764L157.837 725.315C156.299 727.357 150.508 730.189 149.536 731.54C156.845 720.95 160.125 717.703 173.422 722.727C182.18 726.037 193.429 734.974 197.115 743.693C200.156 750.884 199.641 761.306 206.934 766.055C221.952 770.425 235.587 779.383 251.872 777.206C253.624 777.252 255.324 778.26 257.081 778.239C260.127 778.203 286.367 775.309 287.745 774.623C289.039 773.974 289.658 771.62 290.952 770.56C294.445 767.702 300.891 762.413 304.421 760.142C308.189 757.716 327.277 751.569 326.061 746.711C325.167 745.012 323.212 744.326 321.434 744.051C313.289 742.804 294.877 742.539 287.428 745.246C275.883 749.439 265.876 758.766 252.928 758.605C245.915 758.516 225.409 751.985 220.663 747.148C219.233 745.693 219.16 743.526 218.136 742.399C214.326 738.211 207.937 734.179 207.755 727.43C213.837 725.663 219.373 720.093 225.388 717.526C228.902 716.025 240.218 712.284 243.67 711.894C260.226 710.039 274.552 723.502 280.717 737.499L322.651 741.812C347.82 742.804 369.819 727.154 394.25 725.32C406.035 724.437 417.975 726.375 429.281 728.708C435.836 730.059 459.254 735.099 459.285 743.464C459.306 749.6 450.734 748.483 446.154 748.177C429.406 747.044 411.404 738.679 394.282 737.717C381.759 737.016 364.876 740.227 352.972 744.28C347.503 746.14 326.825 754.718 322.76 757.425C316.964 761.291 304.951 779.242 301.047 785.825C291.888 801.262 281.507 836.365 264.873 844.658C274.807 831.834 284.08 819.676 289.809 804.193C287.787 803.767 287.012 804.645 285.598 805.684C270.991 816.45 274.422 819.494 268.174 833.944C266.219 838.459 261.998 842.382 260.725 845.188C260.522 845.64 260.46 846.892 261.229 846.726C262.123 845.141 263.729 845.224 264.873 844.652C256.52 855.439 251.306 857.299 248.53 872.434C247.184 879.781 247.885 889.019 245.884 895.738C244.481 900.445 233.429 920.854 229.889 923.353C223.568 927.811 213.525 929.022 209.279 935.979C208.629 931.714 215.36 925.582 215.729 921.841C216.322 915.861 213.832 905.464 214.03 899.302C214.617 881.049 228.902 858.775 243.051 847.77C240.608 851.921 237.817 854.81 234.739 858.676L236.917 859.803L235.784 864.365C241.585 864.329 239.314 860.63 240.743 856.353C242.173 852.077 245.874 848.949 248.244 845.167L243.056 847.77C253.479 830.057 252.808 817.068 271.823 803.335C276.761 799.766 289.362 794.809 291.862 792.216C293.692 790.32 293.822 785.966 296.041 783.934C293.79 782.588 290.531 783.695 288.202 784.407C278.617 787.322 267.509 795.957 258.64 797.952C260.345 796.861 262.69 795.609 263.833 793.811C258.869 792.928 255.833 794.835 253.442 798.981C255.173 798.758 256.935 798.337 258.635 797.952L258.625 797.973ZM149.515 517.753C139.696 518.812 134.347 531.802 130.786 540.032C125.682 551.837 122.661 561.756 125.624 574.829C132.361 573.862 128.442 568.718 128.743 565.071C129.201 559.558 133.775 558.457 135.87 555.49C142.456 546.168 140.954 541.742 143.574 532.051C144.166 529.859 150.108 518.355 149.51 517.758L149.515 517.753ZM64.6497 534.047C63.7868 532.95 63.5269 529.209 62.2326 530.721L64.3326 561.839L71.0695 595.581C72.8992 591.783 77.1358 586.592 77.7647 582.55C80.4678 565.206 75.0461 547.234 64.6549 534.047H64.6497ZM213.624 576.663C214.321 576.091 215.683 572.558 217.544 570.636C219.389 568.729 227.233 564.463 227.42 563.897C229.707 556.913 216.057 563.725 214.321 564.837C210.058 567.58 197.328 581.271 194.365 585.89C192.291 589.133 191.282 593.58 188.964 596.874C184.998 602.501 177.804 604.019 171.337 605.448C167.62 613.724 179.607 608.721 183.345 608.103C185.835 607.687 188.33 608.217 191.153 607.599C196.517 606.419 204.637 600.589 207.085 595.487C209.533 590.385 209.486 579.957 210.796 577.593C211.42 576.47 213.032 577.151 213.624 576.668V576.663ZM293.962 612.197L288.686 611.755C287.319 610.83 288.041 602.522 282.833 601C279.87 600.132 266.063 600.465 262.284 600.802C249.564 601.946 236.813 607.126 231.615 619.455C242.282 620.411 251.95 626.719 262.783 625.68L258.687 622.983L259.254 618.375L255.516 617.377C266.245 604.039 264.26 616.005 266.526 617.512C267.306 618.032 269.167 617.897 270.321 618.489C272.026 619.362 270.575 621.503 276.299 619.476L275.254 623.612L279.412 624.646L275.264 624.667C274.984 626.444 277.749 625.784 278.804 625.607C281.616 625.14 286.321 623.513 288.707 621.96C288.982 621.783 293.307 617.715 293.453 617.419C294.253 615.756 293.983 613.948 293.972 612.202L293.962 612.197ZM98.599 616.359C96.7173 616.717 90.6354 616.021 91.3424 619.461L98.599 616.359ZM148.481 623.602C148.112 621.866 141.162 616.489 140.169 617.393C141.479 621.097 144.962 622.059 148.481 623.602ZM143.293 627.758C147.103 627.743 147.103 624.672 143.293 624.656V627.758ZM192.119 688.991C192.275 678.859 197.567 669.969 193.668 659.952C191.989 655.634 177.98 640.763 173.754 640.358C171.795 640.171 170.978 643.289 168.769 643.33C167.205 643.356 165.437 641.532 163.488 641.309C159.636 640.873 155.488 641.496 151.6 641.262C149.64 643.143 159.579 652.958 160.041 655.655L168.229 653.706L165.619 645.414C167.241 646.245 168.099 649.378 169.227 650.017C171.004 651.025 170.791 650.152 174.227 652.683C180.351 657.193 190.352 661.053 183.215 670.25C176.255 679.218 173.276 665.537 165.619 664.103C163.997 666.015 167.984 667.969 169.169 669.995C170.209 671.777 170.292 676.885 171.597 678.371C172.101 678.947 183.111 683.177 185.575 684.647C188.039 686.118 189.323 688.809 192.119 688.996V688.991ZM197.318 756.448C195.275 752.006 195.269 746.696 193.367 742.243C189.224 732.542 172.257 724.016 161.986 724.297L169.201 736.226C173.676 734.506 187.555 743.1 188.995 746.613C190.565 750.457 181.5 744.773 180.699 746.083C179.488 747.205 188.439 754.536 189.759 755.18C192.125 756.334 194.724 756.599 197.318 756.443V756.448ZM172.382 756.448C170.531 747.802 158.794 746.379 151.594 748.171L154.209 754.375C156.985 755.045 155.212 751.803 155.779 751.304C157.333 749.928 169.84 755.232 172.377 756.453L172.382 756.448ZM205.629 766.855C202.921 766.991 202.583 763.551 200.769 762.87C197.915 761.8 194.511 762.772 190.721 760.454C187.176 758.288 186.36 753.897 182.248 752.333C180.07 756.131 179.098 762.205 173.422 759.581C175.189 763.972 179.743 762.086 183.527 763.489C186.994 764.777 191.75 769.604 194.869 771.869L205.629 766.861V766.855ZM94.4457 761.654C93.8895 761.119 80.8213 764.84 79.5685 765.723C78.0922 766.772 78.1286 769.718 76.33 771.059C74.5315 772.399 71.3554 771.532 70.5549 774.093C78.3937 778.582 85.2137 776.099 93.406 777.221C93.8271 771.277 91.4151 767.167 94.4457 761.66V761.654ZM105.876 762.688C100.143 761.551 96.7277 770.02 97.5646 775.143L104.39 774.124C103.095 769.36 103.886 766.918 105.876 762.688ZM128.301 773.496C124.112 769.989 119.49 766.855 113.887 765.936C110.965 767.9 108.288 770.254 109.001 774.093C112.395 774.28 115.41 773.122 118.83 773.013C119.99 772.976 122.776 772.358 122.5 774.088C113.991 776.286 105.019 776.878 96.4626 778.707C89.2631 780.245 88.5665 782.578 79.3866 782.391C76.6835 782.339 73.6894 779.809 71.6101 782.921C76.304 784.584 77.7959 795.323 80.1507 796.685C80.6913 796.996 87.8232 798.119 88.6861 798.004C90.625 797.75 98.5886 791.245 101.385 789.847C115.899 782.614 124.668 789.816 139.15 789.166C141.032 787.763 139.348 787.68 138.609 786.563C135.272 781.549 132.975 777.403 128.307 773.496H128.301ZM115.233 790.715C103.059 786.906 95.87 798.394 87.1994 804.717C99.2488 811.794 109.162 800.088 115.233 790.715ZM259.659 833.263C258.141 831.72 251.81 838.875 251.119 840.813C250.074 843.748 250.646 846.216 249.84 848.877C248.878 852.067 244.709 855.506 246.16 860.24C248.873 860.744 247.984 859.72 248.712 858.177C249.866 855.709 250.23 852.846 251.337 850.373C253.941 844.554 257.497 839.238 259.659 833.268V833.263ZM204.59 850.898C205.364 850.134 202.563 844.71 200.442 845.718C199.667 846.481 202.469 851.906 204.59 850.898ZM190.045 852.987C183.989 852.763 183.324 858.749 177.83 861.014C172.496 863.212 167.033 861.097 168.229 869.577C169.83 871.271 191.023 858.634 190.045 852.987ZM200.436 857.138C191.969 856.624 190.03 867.239 181.739 869.057C183.069 872.258 187.233 868.86 188.923 867.935C193.611 865.368 197.993 861.986 200.436 857.133V857.138ZM243.03 874.773L246.149 863.357C242.349 865.612 238.544 868.413 240.676 873.453C241.31 874.954 240.951 875.048 243.03 874.773ZM225.362 875.812C222.05 872.959 219.275 883.611 218.828 885.362C217.507 890.547 216.909 895.857 217.076 901.235C217.351 910.089 218.49 919.134 229.525 918.36C231.272 913.861 225.086 911.013 224.379 909.247C223.761 907.714 222.123 900.882 222.43 899.406C222.965 896.829 227.961 889.69 230.56 888.266L228.746 899.042C230.076 902.056 232.676 902.674 235.649 902.747C237.733 897.026 237.058 890.724 235.243 885.091C234.329 883.715 232.312 885.762 230.004 884.224C226.739 882.057 225.731 876.129 225.362 875.807V875.812Z" fill="#506C46"/>
<path d="M294.996 81.8497C288.972 69.3901 291.124 65.7583 293.952 52.3531L287.75 36.6721L285.603 36.7968C281.237 42.72 283.581 48.3523 282.994 53.9742C282.718 56.6032 280.712 59.409 280.431 62.646C279.469 73.6299 289.112 77.2566 283.55 88.0691C278.466 85.5803 284.059 79.8389 283.139 76.6123C282.126 73.048 277.796 70.2838 277.302 63.6643C276.85 57.58 279.724 56.4578 280.384 52.2024C281.549 44.7256 278.981 40.0494 285.229 33.1701C292.548 25.101 304.109 29.6162 309.993 37.2852C319.594 49.8019 314.869 62.8694 311.568 77.1215C310.549 81.5327 307.815 84.0319 308.028 89.6486C308.221 94.834 312.493 97.6346 312.161 102.617C321.419 101.23 329.31 95.4939 338.412 93.5507C360.66 88.7913 387.259 92.5635 409.528 85.705C413.91 84.3541 417.798 83.0136 420.725 79.2466L416.576 77.7034H421.775C421.754 64.4645 429.634 35.3835 441.159 28.0418C443.675 26.4415 451.805 23.7241 454.497 23.7241H472.68V27.8652C462.087 29.5486 450.609 27.2001 441.029 33.1078L435.269 51.7348C437.234 53.3195 448.966 38.8284 446.705 52.7791C449.881 51.4802 452.839 49.3862 455.973 48.0249C457.465 47.3755 457.195 45.479 459.15 48.1133C455.87 50.2903 453.182 53.2363 450.874 56.4318C447.282 61.3938 442.141 74.0404 439.116 77.3813C437.832 78.7946 434.505 79.4648 433.2 81.3301L440.997 79.7714C431.62 84.5359 418.463 88.7861 408.083 90.4955C405.156 90.9735 402.022 88.7705 399.968 91.6958L405.068 103.121C414.102 113.627 427.155 99.2037 435.269 107.782L415.667 113.118L417.829 122.102C423.812 121.551 432.587 128.56 436.397 122.876C438.404 119.883 434.729 117.955 437.847 118.179C440.883 120.278 445.691 127.999 442.11 130.706C437.478 133.86 428.933 128.015 424.488 128.493C423.833 128.56 423.594 131.459 421.229 131.293C415.069 128.487 409.97 123.167 406.159 117.633L408.244 116.662L405.65 110.899L405.12 116.09C401.996 114.5 403.441 109.923 401.782 106.462C399.849 102.425 393.673 98.2685 394.739 92.2153L373.182 94.5898C366.627 101.152 356.231 107.356 349.515 113.986C345.2 118.252 345.829 120.995 343.282 124.367C338.885 130.197 336.655 122.715 336.504 118.652C336.317 113.762 344.447 102.545 336.603 99.9415C331.061 98.1022 326.144 104.857 322.51 108.811C317.51 114.256 314.063 121.572 306.422 124.409L328.966 139.752C335.812 141.825 343.251 136.582 349.021 135.813C343.896 139.845 339.056 141.181 332.397 141.014C336.296 148.398 341.224 149.821 349.011 151.39C346.661 142.319 361.907 146.21 366.279 148.159C368.769 149.271 369.003 151.744 370.489 152.274C375.454 154.04 380.257 147.431 388.428 151.983C391.116 153.479 391.974 156.919 396.818 155.526C390.014 144.75 360.732 134.26 349.021 135.819C350.383 134.748 350.352 133.449 353.174 132.176C360.852 128.721 369.377 131.953 376.842 134.499C385.736 137.533 403.773 145.135 398.97 157.168C395.222 166.557 390.721 157.314 386.926 156.591C385.611 156.342 371.565 156.108 370.942 156.607C369.606 157.677 370.786 164.816 364.174 163.834C357.25 159.678 346.957 158.53 340.35 154.321C336.987 152.18 335.786 149.078 333.317 146.813C324.751 138.952 314.422 139.835 303.818 135.715L270.705 143.217C266.838 145.275 265.107 153.962 264.826 158.119C264.67 160.4 264.608 159.501 265.907 159.2C293.328 152.928 309.38 162.993 330.635 178.549C334.679 181.505 343.75 188.151 346.833 191.429C348.033 192.708 349.25 194.074 349.005 195.997L346.001 194.989C345.679 195.778 345.512 197.031 344.93 197.581C343.09 199.317 319.272 205.053 315.28 205.37C304.249 206.248 294.7 204.289 284.059 203.265C279.064 202.787 274.032 203.853 268.943 202.798C262.57 201.478 258.224 196.625 253.109 193.705C250.77 192.37 246.825 192.411 245.042 190.343C243.259 188.276 242.053 181.199 240.696 178.076C239.469 175.244 235.696 173.374 236.782 169.015C229.702 171.114 226.302 178.185 221.213 183.028C218.313 185.787 213.577 188.026 210.817 191.326C211.592 193.019 213.229 190.801 213.411 190.801H235.233C240.79 190.801 245.827 194.807 250.017 196.786C252.189 197.815 255.683 197.285 256.525 199.093C244.111 199.301 231.948 195.467 219.633 194.963C212.886 194.687 204.642 193.061 204.579 202.211C208.192 202.096 211.857 202.413 215.475 202.211C225.226 201.644 230.814 199.576 240.977 201.665C245.208 202.533 267.846 208.399 270.347 209.693C272.467 210.789 276.013 215.969 278.347 217.777C274.183 218.863 273.091 214.701 271.345 213.61C268.366 211.75 242.604 204.876 238.217 204.419C226.672 203.214 214.721 205.5 203.134 204.232C200.265 212.119 202.505 220.043 197.297 227.623L199.433 228.798C206.534 228.034 215.1 229.452 222.326 227.52C227.332 226.179 232.312 221.061 237.827 220.905L225.362 228.683C227.81 230.019 233.294 228.013 234.703 231.261C226.739 231.406 220.631 228.985 213.156 233.1L201.466 234.373C220.652 245.643 247.059 248.464 265.871 235.422C264.15 243.336 250.386 247.206 243.254 248.625C231.657 250.937 222.57 249.763 211.581 245.549C206.461 243.585 197.011 236.836 193.18 235.848C191.594 235.438 189.671 236.721 189.146 236.368C188.683 236.056 188.553 233.635 186.932 232.814C183.012 230.829 171.618 232.669 170.271 227.135L168.228 227.125C167.755 230.273 162.937 230.175 159.199 232.139C134.123 245.31 116.205 265.48 92.6782 279.852C88.1454 282.621 83.467 285.837 77.8114 285.229C85.9933 274.303 100.527 269.995 110.976 261.802C123.742 251.789 132.387 242.104 147.55 233.983C152.566 231.292 158.763 229.338 164.06 227.109C165.494 225.202 152.722 207.666 150.03 205.349C146.531 210.446 143.937 216.343 139.649 220.905C135.137 225.706 101.707 248.37 95.7295 250.724C87.3449 254.023 77.1824 254.346 69.6035 260.955C63.7347 266.067 58.391 274.734 51.9557 279.732C56.0934 288.014 52.174 297.533 64.5145 293.231C83.4306 286.632 90.5781 285.375 110.217 281.8C126.513 278.833 147.087 273.014 159.906 262.409V280.574C159.906 301.097 129.201 350.24 111.002 360.423C97.0395 368.238 65.1279 368.856 49.2526 367.225C45.1773 366.804 42.1259 364.777 38.7471 364.221C31.3085 362.995 23.714 362.013 16.2234 361.171C14.8979 361.551 8.16626 368.679 6.6224 370.332C0.0674992 377.346 -4.88116 383.69 -11.6232 390.507L-22.4614 401.46C-25.861 399.168 -22.6797 396.971 -22.1755 394.497C-20.4445 386.08 -20.3821 385.924 -14.6381 379.191C-9.46596 373.127 -7.93249 373.636 -2.71352 370.441C-1.95979 369.978 9.81408 359.072 10.1104 358.236C11.3579 354.677 8.69127 350.842 9.43461 347.273L20.6471 312.726L17.5542 309.12C30.4872 307.364 20.6315 297.923 19.6906 291.922C18.469 284.081 21.1409 274.879 14.9499 267.616C9.35664 273.648 2.47945 279.161 -0.130033 287.313C-1.939 288.685 -3.10339 275.243 -3.27493 273.253C-3.46726 271.045 -2.39644 268.982 -2.54718 267.226C-2.85907 263.63 -5.99357 254.496 -5.31261 251.529C-5.24504 251.228 -3.79475 249.487 -3.21775 250.459C-2.34965 254.637 -0.176817 251.716 1.4866 252.943C5.35924 255.8 5.7595 268.878 12.8706 264.477L13.4008 261.37C26.1208 274.682 24.5821 292.415 30.1233 309C37.4528 310.216 45.0265 309.728 51.9037 306.512L52.5691 305.535C52.4079 303.789 51.0096 301.674 51.0304 300.069C51.0772 296.629 54.955 297.731 47.7764 292.847C51.0252 281.992 45.3228 283.416 40.3378 278.563C35.1656 273.528 38.1701 264.737 37.0681 259.011C36.6523 256.845 34.4222 255.187 33.6477 253.078C32.2754 249.352 31.4021 245.388 30.0246 241.657C34.0532 243.414 33.7933 247.965 35.3215 251.405C36.2312 253.457 38.2377 255.281 38.8875 257.188C41.7465 265.589 38.9239 278.137 50.7861 280.054C56.1922 269.346 65.6841 258.804 76.8134 253.623C83.7165 250.412 92.2415 249.119 98.4949 246.219C102.633 244.297 105.034 240.208 108.647 237.677C122.817 227.759 139.862 221.035 148.512 204.809C142.939 198.397 140.413 193.518 139.249 184.961C137.84 174.626 139.16 166.422 136.696 156.373C135.303 150.689 136.343 140.032 140.715 135.819C141.848 134.727 143.688 134.774 144.811 133.683C149.141 129.475 145.055 124.351 156.002 125.676C163.836 126.622 167.532 129.287 169.258 136.827C165.125 129.989 156.371 128.628 149.255 131.901C148.652 132.182 140.974 141.43 140.699 142.033C136.925 150.325 142.497 151.401 145.902 155.485C149.567 159.886 156.995 168.547 157.739 173.758C158.154 176.679 157.255 180.144 158.04 182.799C158.783 185.314 166.996 191.061 168 194.646C169.128 198.672 167.813 205.162 170.812 209.474C176.857 203.972 180.839 192.069 180.699 184.036C180.611 178.85 176.187 171.841 175.61 166.297C175.215 162.535 176.894 157.153 176.384 155.23C175.875 153.308 172.595 152.014 171.602 149.541C170.204 146.06 170.069 140.365 169.258 136.832C171.223 140.084 171.342 143.955 172.969 147.135C173.884 148.922 176.343 149.951 177.107 152.346C178.526 156.81 176.831 162.535 177.798 167.222C178.583 171.01 183.334 177.302 183.787 181.043C184.041 183.168 182.934 190.598 182.487 193.123C182.128 195.16 178.115 203.146 181.182 202.2C190.607 194.562 202.131 189.19 211.306 181.427C213.271 179.765 225.98 167.274 226.261 166.193C227.446 161.642 219.872 158.15 217.606 155.474C216.405 154.056 203.768 134.676 203.285 133.455C202.89 132.452 198.643 115.924 198.435 114.427C196.688 101.781 199.412 96.0031 202.043 85.0036C203.893 77.2774 202.807 70.6423 209.367 64.293C212.07 61.6744 219.867 57.8139 223.553 58.1672C225.325 58.3334 236.917 61.8614 238.763 62.7343C241.164 63.867 246.269 68.7614 246.96 71.1515C247.391 72.6479 248.395 88.2925 248.296 90.6618C248.15 94.0339 246.518 96.2785 246.227 99.0374C245.619 104.805 245.858 112.193 245.042 117.571C244.085 123.863 232.561 137.112 229.744 143.763C228.772 150.211 242.651 147.935 246.721 150.19C250.63 150.034 268.969 132.27 273.705 128.555C276.257 126.554 287.475 119.893 288.306 118.184C288.904 116.947 286.71 115.399 286.866 113.648C287.106 110.936 292.127 107.029 292.73 104.94C293.53 102.171 291.753 100.04 291.877 97.4008L294.991 103.625L300.174 101.531L296.166 94.621C301.172 88.8225 297.809 87.6742 294.986 81.8341L299.139 82.8681C298.952 80.1039 297.647 77.3917 295.501 75.6147L294.986 81.8341L294.996 81.8497ZM304.332 38.262L302.425 39.6389C303.76 41.3795 303.142 46.2532 306.422 45.5206L304.332 38.2672V38.262ZM297.081 50.7112C302.295 50.4878 300.304 44.5593 296.041 44.4918L297.081 50.7112ZM448.779 54.873C447.246 53.4546 443.747 58.8115 443.586 60.0429C445.005 61.4405 448.311 55.8758 448.779 54.873ZM440.462 61.1028L435.28 60.0533V62.1212H440.462V61.1028ZM234.838 80.691L240.478 80.93C247.537 71.3022 229.198 67.0468 222.264 65.2491C222.279 67.9665 224.93 68.8654 225.933 71.4321C228.241 77.3501 224.878 79.0388 234.724 76.6487L234.838 80.6858V80.691ZM435.269 66.2882L433.205 66.2778L432.155 70.4241C434.775 70.6943 435.664 68.777 435.269 66.2882ZM207.693 73.552L205.629 74.0664C207.402 81.3197 200.592 87.1598 206.664 92.7713C208.046 93.8105 208.852 89.3005 212.933 90.5631C218.973 92.4284 216.675 97.2033 217.06 97.406C220.694 99.3544 222.43 94.382 222.778 94.2781C226.51 93.1402 224.93 96.2317 226.095 98.1957C226.853 99.4791 228.169 99.3648 228.683 100.965C229.822 104.524 227.358 106.935 227.441 109.258C227.462 109.834 229.068 109.85 229.442 110.676C231.028 114.194 232.774 119.005 232.733 122.845C232.644 130.696 222.331 131.08 227.971 139.96L241.528 119.254C240.738 113.799 246.612 93.3688 242.017 90.6618C238.513 88.5991 233.226 90.3085 232.135 94.2937C230.451 87.9652 226.531 88.9316 223.605 86.7234C222.357 85.7829 221.401 81.9172 219.727 80.7326C216.738 78.6127 208.457 79.7818 207.688 73.5468L207.693 73.552ZM432.15 74.5911C430.336 72.7414 426.307 81.7718 424.888 82.4472L421.276 80.8001L418.645 84.9516L430.081 82.8785C427.233 78.727 431.76 78.2126 432.145 74.5859L432.15 74.5911ZM304.343 91.1866C305.195 90.2669 301.588 84.0943 299.155 84.9776C300.522 87.0871 301.052 91.384 304.343 91.1866ZM203.55 94.3093L200.421 94.9172L200.442 107.792C204.662 108.546 201.356 103.376 201.502 101.1C201.648 98.8244 204.137 96.9176 203.55 94.3145V94.3093ZM307.456 104.69L302.269 105.735C300.974 110.562 308.231 105.044 307.456 104.69ZM301.224 107.803H299.165L298.115 110.899C300.013 111.253 301.556 109.762 301.229 107.803H301.224ZM342.788 119.218H341.25L338.635 122.315C340.548 122.564 341.686 122.382 342.783 120.751V119.213L342.788 119.218ZM230.565 120.257H228.496V126.471H230.565V120.257ZM216.312 138.718C215.334 137.196 217.065 134.603 214.996 134.785V140.999L218.1 139.44C218.438 138.536 216.655 139.243 216.312 138.713V138.718ZM320.972 138.921C319.412 135.855 314.666 135.476 311.62 134.79C313.258 137.523 318.092 138.12 320.972 138.921ZM264.857 147.239C261.811 146.719 263.178 147.972 262.659 149.655C261.77 152.528 261.057 155.656 260.714 158.644C265.07 158.753 263.646 150.128 264.863 147.239H264.857ZM244.08 152.435C236.397 152.528 229.567 152.991 222.264 150.357L229.546 163.84L244.08 152.435ZM364.605 156.586C364.143 156.155 360.483 155.469 359.417 155.547C360.078 157.932 362.713 157.75 364.605 157.599C364.553 157.267 364.745 156.721 364.605 156.586ZM290.833 168.007L275.259 163.85L275.249 167.991C279.319 167.492 283.155 168.937 287.168 169.082C288.317 169.124 291.113 169.732 290.833 168.012V168.007ZM266.422 178.372C276.969 179.214 288.499 177.749 299.155 178.372C298.926 176.756 294.721 176.715 293.271 176.465C281.382 174.408 268.6 174.159 256.551 174.231C257.679 179.095 259.836 176.751 263.334 177.286C264.634 177.484 265.97 178.336 266.422 178.372ZM342.788 192.91C335.397 191.523 326.243 182.274 319.438 181.453C304.977 179.718 289.19 182.752 274.718 183.547C269.723 183.823 264.655 183.371 259.67 183.563L262.778 186.145C261.577 188.255 261.401 189.258 258.625 188.754C256.53 190.681 268.595 195.539 269.764 195.784C274.443 196.75 280.228 195.57 285.104 196.028C303.246 197.722 322.146 200.475 340.096 194.879C341.26 194.516 342.606 194.521 342.788 192.91ZM156.455 187.023C156.013 186.634 153.798 185.491 153.689 185.636C152.951 188.806 155.576 191.814 155.701 194.526C155.789 196.475 154.479 198.2 154.869 200.439C155.306 202.954 164.163 213.725 166.139 216.769C163.846 211.75 166.487 201.722 165.525 198.044C165.312 197.228 157.557 188.005 156.455 187.023ZM130.453 329.534C136.119 322.998 147.794 304.589 151.064 296.665C154.703 287.843 157.692 277.218 157.827 267.621C144.312 274.698 144.634 290.966 138.656 302.947C137.003 306.262 123.509 324.489 120.998 326.827C118.856 328.822 115.727 330.495 113.149 332.48C112.327 333.109 111.147 335.276 110.045 333.535C112.421 330.828 115.581 328.511 117.765 325.679C127.428 313.131 132.106 300.739 135.537 285.307C135.74 284.393 136.79 282.574 135.506 282.164C132.117 284.824 124.772 286.024 121.778 288.695C112.099 297.346 106.64 325.767 98.5625 331.41C96.2857 333 93.0836 332.932 91.3527 335.603C91.3527 337.515 103.652 337.359 101.266 343.381L94.456 347.548C94.1961 349.356 96.8575 348.608 97.9699 348.463C110.149 346.914 122.568 338.622 130.453 329.529V329.534ZM115.233 291.506C106.49 292.576 103.35 298.183 97.6165 303.503C96.2701 304.755 94.274 304.631 93.3436 305.701C89.5073 310.097 88.5768 325.268 80.9615 327.846C80.79 331.862 87.0849 329.981 86.1493 335.089C87.7399 335.452 87.8127 334.839 88.6756 333.982C93.4735 329.202 104.66 310.097 108.798 303.228C111.075 299.45 112.738 295.185 115.233 291.506ZM97.5645 295.663C93.9258 293.657 91.072 295.787 87.7399 295.694C85.0941 295.621 82.7965 294.488 79.428 294.598C72.1558 294.831 65.211 298.78 58.0843 299.814C57.2474 303.669 61.983 300.864 64.3585 302.355L64.3013 307.057C76.2987 309.011 65.0135 310.98 62.3001 313.874C60.9381 315.324 60.8498 317.745 59.124 319.007C61.775 320.556 65.0863 320.655 64.3117 324.692C55.4593 327.825 42.6405 325.985 50.5678 338.757C48.0518 342.576 42.5106 340.975 39.3709 338.694C37.6087 337.416 29.0473 330.636 27.9245 329.394C25.8193 327.056 25.0967 322.146 21.2033 321.569C18.8329 321.221 19.8777 322.468 19.4879 323.99C17.2423 332.704 16.7069 334.481 23.0538 341.012C23.9063 341.89 25.7309 341.76 26.6042 342.638C30.1701 346.244 35.4359 355.789 41.7984 353.627C42.5314 351.757 47.0278 348.894 47.4073 348.286C48.0155 347.309 50.521 340.18 51.124 339.448C55.6256 333.94 75.3215 328.339 80.3481 322.551C83.0616 319.428 84.5275 312.96 86.7159 309.193C89.6321 304.179 93.9673 300.121 97.5645 295.652V295.663ZM50.8069 319.511C48.7744 315.526 52.8238 313.396 51.8361 309.141L40.4053 312.263L41.0343 315.407L38.3469 316.425V318.467C42.8225 320.384 46.0817 320.161 50.8121 319.511H50.8069ZM79.5008 341.75C76.6262 339.619 73.4034 338.232 70.9186 335.192L64.3169 339.76C71.8127 340.575 69.0421 344.337 69.6295 345.262C70.1233 346.046 75.8569 347.642 76.2779 350.681L78.8614 349.923L81.8816 343.475C80.4313 343.604 80.1558 342.233 79.5008 341.75Z" fill="#506C46"/>
<path d="M1531 746.077C1530.06 746.218 1525.49 747.844 1525.29 748.686L1528.4 752.292C1508.11 749.413 1496.27 730.412 1476.48 725.803C1470.61 724.437 1459.63 721.99 1454.02 721.262C1442.3 719.74 1437.93 727.97 1427.62 731.025C1436.5 738.071 1448.3 742.326 1458.44 747.974C1471.32 755.149 1486.07 763.982 1497.24 773.568C1507.59 782.453 1522.47 802.811 1537.22 803.263C1543.21 803.444 1561.08 800.883 1565.84 797.412C1566.8 796.705 1565.9 795.058 1567.25 793.811C1568.74 792.445 1572.48 791.795 1573 790.029L1571.01 780.333C1576.84 781.414 1580.4 783.648 1586.59 781.357C1585.77 775.397 1580.67 773.013 1578.06 768.612C1576.75 766.383 1572.83 757.487 1571.99 754.962C1571.17 752.52 1569.8 743.874 1569.9 741.432C1570.04 737.806 1577.2 728.921 1579.5 724.988C1583.14 718.732 1583.18 712.107 1590.44 708.943C1598.3 705.519 1605.07 709.915 1612.06 704.578C1614.29 709.099 1602.19 710.819 1601.34 712.05C1600.78 712.871 1601.34 714.965 1600.19 716.581C1598.93 718.342 1595.33 718.706 1594.27 722.197C1593.24 725.59 1600.24 732.002 1590.76 732.584C1595.22 727.056 1592.98 727.16 1592.02 722.504C1591.46 719.802 1592.67 716.706 1590.22 714.96C1586.7 714.186 1583.77 726.141 1582.28 728.801C1579.51 733.732 1572.94 739.479 1573.06 745.511C1573.21 753.284 1578.23 760.548 1579.43 768.3C1580.73 770.368 1584.41 771.885 1586.61 770.513C1588.73 769.095 1588.98 764.065 1589.96 762.943C1590.85 761.93 1598.23 760.189 1600.63 758.542C1608.32 753.268 1612.11 742.648 1610.49 733.633L1603.21 734.195L1601.14 727.404H1611.52L1614.64 720.135C1611.61 734.891 1620.96 752.26 1606.28 763.146C1600.59 767.37 1592.08 766.637 1587.66 772.545C1593.97 779.777 1604.16 781.238 1611.16 787.431C1612.85 787.774 1620.75 781.518 1621.94 779.819C1624 776.894 1622.94 774.223 1624.2 771.786C1626.58 767.167 1629.41 762.418 1631.93 757.628C1640.18 741.931 1659.08 749.008 1672.34 741.126C1675.13 744.446 1678.88 749.195 1683.75 749.195H1699.86C1695.91 759.524 1685.33 773.371 1674.15 775.933C1671.7 776.494 1669.15 775.875 1666.55 776.644C1663.45 777.559 1660.9 781.373 1656.49 782.162C1650.57 783.217 1645.4 780.058 1639.54 781.84C1637.24 782.536 1633.36 785.81 1630.22 787.057C1628.11 787.893 1609.72 792.772 1612.57 795.89C1617.78 796.17 1622.2 801.075 1626.87 802.888C1635.75 806.333 1646.76 800.145 1657.22 803.715C1659.88 804.619 1664.05 807.835 1666.21 808.053C1669.01 808.339 1673.58 806.894 1677.52 807.315C1685.14 808.131 1686.2 811.072 1694.57 805.673C1699.71 802.353 1701.18 797.183 1704.62 792.881C1706.85 790.102 1719.81 773.589 1721.37 773.226C1723.86 772.644 1728.67 775.87 1731.68 776.146C1735.52 776.494 1738.56 774.436 1742.76 775.361C1745.32 775.927 1754.19 782.511 1757.76 784.256C1761.11 785.893 1765.76 785.134 1767.4 789.67C1763.49 789.764 1759.18 790.377 1755.55 791.858C1754.49 792.289 1745.97 797.08 1745.57 797.495C1744.57 798.555 1744.93 800.53 1743.81 801.127C1735.66 805.502 1732.37 804.593 1724.55 805.424C1722.82 805.606 1715.56 807.991 1714.86 809.399C1714.12 817.79 1718.45 822.851 1723.32 829.023C1724.32 830.286 1726.28 830.691 1727.34 832.276C1728.19 833.539 1730.4 839.929 1727.93 840.522C1724.67 834.541 1722.91 827.148 1715.45 825.999C1714.34 827.47 1722.38 839.483 1724.14 841.244C1724.71 841.816 1727.83 841.8 1728.44 844.678L1729.98 841.577C1728.93 847.77 1736.29 849.1 1733.1 855.06C1731.05 853.153 1724.67 851.999 1722.14 852.373C1720.65 852.597 1719.75 855.023 1718.54 855.657C1717.24 856.338 1707.07 850.186 1706.04 848.373C1704.87 846.32 1705.34 844.211 1704.47 842.668C1703.74 841.358 1699.25 833.585 1698.8 833.274C1697.85 832.619 1696.35 833.933 1695.73 834.817C1699 839.155 1699.48 844.684 1701.91 849.386C1703.35 852.171 1710.9 861.7 1713.39 862.827C1717.55 864.719 1725.2 862.053 1729.98 864.407C1729.92 861.762 1730.3 858.297 1733.1 857.138L1731.08 869.104C1727.26 871.374 1724.63 867.67 1721.9 866.781C1712.77 863.83 1710.46 863.628 1704.03 855.558C1696.45 846.019 1694.7 834.126 1690.7 823.209C1690.04 821.406 1686.75 814.719 1685.32 814.054C1678.87 812.735 1670.73 812.802 1664.5 810.978C1660.92 809.929 1656.4 806.64 1653.51 806.297C1646.77 805.492 1637.91 809.3 1630.01 807.024C1623.91 805.268 1607.77 794.56 1602.84 795.116C1599.91 795.448 1585.9 804.613 1585.64 808.973L1590.02 813.228C1600.03 814.018 1596.43 827.018 1596.15 833.783C1595.96 838.365 1597.74 842.423 1594.89 847.791C1592.46 847.157 1594.97 843.177 1594.72 841.27C1593.87 835.004 1594.33 838.21 1594.86 832.692C1595.77 823.152 1593.28 816.314 1583.48 813.55C1582.31 816.543 1585.3 816.47 1585.51 817.39C1587.17 824.571 1586.9 831.003 1591.58 837.768L1583.68 848.555C1582.99 854.062 1588.98 866.023 1583.5 869.099C1578.79 871.743 1580.35 866.532 1579.96 864.085C1579.52 861.341 1577.61 859.341 1579.31 855.06C1568.67 859.055 1567.36 849.864 1565.8 841.561C1563.42 841.119 1564.15 841.732 1563.5 842.891C1560.44 848.279 1562.66 851.745 1562.15 856.255C1561.85 858.764 1559.63 860.978 1559.5 863.898C1559.31 868.325 1563.11 872.59 1563.73 876.846C1557.12 874.887 1553.92 865.16 1555.89 859.144C1556.55 857.122 1558.89 855.938 1559.36 854.322C1562.13 844.871 1560 835.487 1568.22 826.316C1570.45 823.828 1574.87 822.747 1577.1 819.099C1579.56 815.057 1583.05 806.915 1575.84 807.388C1567.22 807.949 1555.26 812.48 1546.51 813.462C1542.13 813.956 1537.37 813.046 1533.1 813.561C1528.67 814.096 1513.14 816.398 1510.35 818.647L1509.67 821.282C1513.88 823.417 1517.7 828.062 1517.99 832.863C1518.24 836.833 1516.51 837.867 1518.1 843.052C1519.83 848.71 1522.44 847.198 1523.3 848.414C1528.03 855.096 1522.72 868.408 1517.49 873.728C1516.29 871.213 1520.25 867.197 1520.86 864.63C1522.72 856.847 1516.69 854.545 1515.93 847.78C1513.17 847.557 1514.21 847.671 1513.91 849.365C1513.16 853.615 1512.05 856.842 1512.71 861.149C1507.66 863.43 1504.65 861.736 1504.39 856.203L1500.36 856.088L1501.38 866.459C1496.99 862.355 1497.19 854.415 1497.23 848.814C1494.82 851.35 1489.87 852.212 1487.61 853.974C1485.7 855.47 1477.86 871.089 1477.17 873.915C1475.68 879.932 1476.65 887.414 1474.97 893.519C1473.48 898.954 1461.41 909.444 1456.36 912.297C1451.22 915.201 1444.89 917.316 1439.05 918.339L1456.96 909.029C1459.83 904.285 1465.56 902.092 1468.14 897.073C1471.43 890.698 1470.13 883.138 1471.74 876.804C1473.51 869.863 1482.57 863.124 1483.72 856.083C1482.28 855.964 1480.89 856.052 1479.51 856.54C1476.69 857.538 1471.08 863.825 1468.95 864.698C1465.42 866.142 1460.57 865.862 1456.79 868.091C1450.37 871.868 1451.04 878.056 1448.59 883.767C1445.34 891.321 1441.16 898.356 1439.06 906.426C1439.94 908.047 1440.86 906.425 1441.64 905.89C1445.1 903.5 1448.38 900.772 1452.04 898.637C1452.74 898.408 1452.8 899.619 1452.55 900.175C1451.24 903.048 1438.85 909.205 1437.91 910.728C1436.79 912.567 1437.35 915.918 1436.02 917.919L1438 919.373C1433.94 920.148 1433.42 926.72 1429.71 928.726C1428.19 919.779 1427.93 908.478 1430.15 899.603C1431.25 895.208 1441.39 874.404 1444.24 871.421C1450.18 865.197 1459.13 865.508 1466.45 862.173C1474.53 858.489 1481.27 850.274 1490.86 848.669C1490.24 836.048 1500.57 831.206 1503.82 819.583C1505.98 811.82 1508.59 793.593 1504.95 786.626C1504.18 785.145 1491.49 773.885 1489.27 772.192C1481.45 766.232 1471.69 762.003 1463.64 756.266L1447.36 748.151C1448.38 753.139 1451.38 758.631 1452.31 763.431C1453.94 771.869 1451.83 789.416 1446.38 796.186C1445.04 797.849 1442.88 797.277 1440.88 800.317C1439.05 803.102 1438.79 806.105 1439.04 809.373C1429.94 810.568 1432.49 801.252 1430.18 794.861C1428.97 791.489 1424.67 787.01 1424.61 783.96C1424.55 781.227 1427.14 778.562 1427.4 776.447C1428.49 767.77 1426.63 766.518 1432.38 757.571C1436.23 751.59 1439.93 753.492 1436.12 745.345C1433.37 739.468 1419.47 732.911 1413.34 731.768C1389.1 727.263 1363.01 735.275 1340.36 743.49C1336.12 745.023 1330.12 749.283 1326.06 749.98C1322.19 750.639 1314.31 749.569 1311.24 747.589C1309.48 741.729 1332.69 734.735 1337.44 733.306C1352.06 728.916 1376.76 723.86 1391.8 724.208C1400.87 724.421 1410.29 728.209 1419.82 727.362C1433.21 726.172 1438.77 716.035 1454.03 718.124C1456.81 718.503 1460.61 720.883 1462.63 720.925C1464.21 720.956 1466.35 718.42 1469.68 718.004C1474.99 717.35 1480.61 718.94 1485.29 718.862C1493.81 718.711 1501.99 717.116 1510.8 718.498C1522.36 720.311 1534.58 731.623 1544 738.273L1539.85 737.754L1540.37 741.895C1531.27 728.952 1516.38 732.293 1503.25 728.11C1497.45 726.261 1494.16 722.546 1487.9 722.182C1485.45 724.982 1496.26 729.014 1498.63 730.656C1503.02 733.701 1517.37 747.371 1521.4 746.93C1525.42 746.488 1531.07 744.202 1536.17 743.932C1541.41 743.656 1545.97 746.794 1547.64 741.916L1551.27 745.542C1551.54 748.717 1550.14 746.046 1549.72 746.046C1544.2 746.046 1536.09 745.303 1531.02 746.046L1531 746.077ZM1513.33 721.169C1508.62 720.384 1502.18 721.74 1497.23 721.169L1526.83 729.482C1528.09 728.687 1525.12 726.874 1524.59 726.531C1522.77 725.357 1515.06 721.454 1513.34 721.169H1513.33ZM1537.75 735.691L1533.61 732.589V734.647L1537.75 735.691ZM1696.73 750.234L1683.38 751.434L1679.07 766.824C1683.44 768.804 1698.25 751.725 1696.73 750.234ZM1676.75 761.41L1679.06 751.268C1674.64 752.806 1667.02 756.843 1662.68 757.306C1659.95 757.597 1657.62 756.298 1654.7 756.412C1649.21 756.63 1635.96 760.111 1632.88 764.803C1632.09 765.993 1626.86 774.592 1626.61 775.153C1625.5 777.689 1625.77 782.469 1624 785.514C1640.29 781.347 1654.53 771.553 1669.44 763.967C1671.31 763.016 1675.68 762.501 1676.75 761.405V761.41ZM1443.19 765.806L1436.35 778.167L1431.07 784.973L1436.44 795.879C1440.54 792.034 1438.02 785.721 1439.48 781.295C1440.31 778.78 1442.92 778.541 1443.21 777.517C1444 774.602 1442.63 769.136 1443.18 765.806H1443.19ZM1742.18 788.351C1742.99 787.457 1743.19 783.872 1745.55 782.926C1739.1 774.415 1730.51 780.692 1722.27 776.12C1720.94 778.77 1705.31 796.285 1707.13 797.968C1711.56 797.646 1717.61 794.284 1716.65 789.359L1718.16 787.66C1721.97 786.496 1727.33 792.58 1729.39 792.71C1730.74 792.793 1741.48 789.13 1742.18 788.351ZM1740.37 795.905C1738.39 796.653 1729.08 796.555 1728.97 798.482C1732.26 806.302 1736.06 798.69 1740.37 795.905ZM1728.94 801.101C1722.61 797.932 1720.9 798.966 1715.13 802.12C1711.79 808.427 1721.3 803.502 1724.64 802.686C1726.54 802.223 1729.67 804.852 1728.94 801.101ZM1693.52 811.565C1684.36 811.098 1690.72 815.582 1692.08 819.214C1692.36 819.962 1693.15 829.372 1695.68 827.028C1696.46 823.895 1698.68 820.793 1697.8 817.38C1697.53 816.33 1692.64 815.171 1693.52 811.565ZM1510.71 824.965C1508.25 824.378 1509.05 825.407 1508.42 826.311C1502.26 835.191 1502.99 843.67 1501.39 854.021C1509.95 852.872 1515.31 841.68 1514.84 833.84C1514.65 830.67 1511.24 828.083 1510.71 824.971L1510.71 824.965Z" fill="#506C46"/>
<path d="M1884.81 343.391C1885.62 340.622 1887.31 339.791 1888 337.754C1890.36 330.797 1890.08 326.687 1891.04 320.047C1892.54 309.764 1894.38 299.414 1895.06 289.038L1894.18 287.838C1889.76 287.5 1879.19 282.554 1877.54 278.511C1876.75 276.578 1878.53 276.771 1879.86 277.233C1883.22 278.407 1885.53 279.836 1889.49 280.096C1890.89 280.184 1891.52 280.189 1891.02 278.548C1890.77 277.711 1886.87 269.902 1886.47 269.6C1884.51 268.135 1881.85 269.081 1879.63 268.13C1879.25 267.969 1873.89 263.511 1873.38 262.955C1870.1 259.318 1868.52 254.569 1867.14 249.997L1873.37 253.093L1869.22 247.383L1872.36 246.292C1876.91 250.537 1880.88 262.56 1888.36 261.407C1890.42 261.09 1891.52 258.85 1894.61 259.276C1897.56 259.687 1899.68 265.662 1901.42 259.858C1892.67 254.564 1882.47 251.971 1875.02 244.697L1857.79 216.775C1869.91 230.273 1878.13 249.15 1899.34 248.433C1897.27 245.362 1893.2 243.803 1891.01 241.179C1888.68 238.384 1887.71 233.952 1885.65 230.964C1879.03 221.383 1869.87 209.615 1857.79 207.417L1859.86 205.879L1851.54 202.252L1852.07 204.325C1839.74 201.629 1828.67 202.761 1816.23 203.271L1824.53 200.153C1824.58 198.47 1820.91 198.028 1819.86 198.059C1815.14 198.205 1809.16 201.582 1804.81 203.276L1803.68 197.758L1807.89 194.459L1794.4 184.612C1799.67 185.023 1808.64 185.844 1813.35 187.985C1816.79 189.548 1817.51 192.962 1820 194.838C1827.96 200.823 1841.59 195.872 1850.5 201.208C1853.1 197.877 1838.57 192.157 1836.06 190.219C1831.55 186.748 1830.23 182.602 1824.87 179.599C1814.93 174.034 1811.81 176.455 1802.25 176.33C1797.74 176.273 1791.98 173.322 1787.6 173.14C1781.83 172.901 1775.01 175.457 1769.47 170.584L1813.17 170.542C1827.09 172.693 1827.52 178.871 1836.05 186.078C1838.63 188.26 1849.74 193.871 1853.05 195.04C1857.33 196.547 1863.06 196.875 1867.62 197.124L1869.2 193.949C1869.46 197.534 1874.3 199.732 1877.52 198.615C1867.39 188.52 1860.08 176.034 1850.54 165.372C1844.76 158.914 1832.98 146.756 1825.04 144.137C1824.52 143.966 1823.34 143.856 1823.5 144.636C1831.47 152.305 1836.58 160.457 1845.39 167.409C1849.48 170.641 1858.64 173.312 1858.32 180.445C1853.61 172.553 1842.66 171.306 1836.07 165.294C1828.32 158.223 1823.4 145.519 1812.08 140.479C1804.76 137.221 1805.67 139.928 1800.64 141.529C1791.44 144.449 1770.2 151.448 1761.8 147.104C1760.91 146.641 1756.05 142.422 1755.02 141.42C1754.17 140.583 1747.92 133.491 1748.69 132.706L1752.32 134.816C1752.96 131.08 1756.78 133.517 1757.93 132.602C1758.48 132.171 1757.77 128.004 1760.86 126.71C1764.29 125.261 1768 125.323 1771 127.526C1774.62 124.913 1768.99 124.694 1768.42 122.341C1780.96 126.513 1792.54 128.326 1805.83 127.516C1806.29 125.718 1805.08 125.443 1804.28 124.398C1801.53 120.813 1797.85 118.246 1794.92 114.022C1794.34 113.186 1792.12 112.006 1793.87 110.915C1800.69 117.69 1806.8 124.923 1814.13 131.158C1819.78 135.969 1827.21 140.053 1832.84 144.677C1842.65 152.752 1851.72 162.348 1861.43 171.103C1871.04 179.78 1874.61 191.985 1880.22 203.182C1881.8 206.331 1884.94 209.246 1886.75 213.273C1891.65 224.205 1892.53 239.132 1906.57 242.676L1912.34 233.396C1914.3 234.503 1913.38 236.986 1914.19 238.285C1914.59 238.924 1916.4 238.966 1916.85 240.244C1917.99 243.455 1915.75 257.541 1915.98 262.945C1916.41 273.128 1921.32 287.006 1920.8 296.016C1920.55 300.349 1917.2 304.807 1917.98 309.551L1926.34 314.846C1923.61 317.324 1919.5 317.485 1916.48 319.511C1913.88 321.257 1910.84 325.466 1908.15 327.788C1906.43 329.269 1899.1 333.504 1898.82 333.987C1898.43 334.657 1899.41 336.626 1898.91 338.18C1897.54 342.409 1891.25 349.429 1891 353.227C1890.89 354.853 1890.87 355.035 1892.58 354.796L1897.77 348.561L1919.09 334.06C1920.12 335.016 1906.76 344.986 1905.52 345.922C1903.76 347.231 1901.43 347.288 1899.83 348.546C1897.98 350 1892.33 358.075 1892.22 360.465C1892.08 363.458 1896.51 380.224 1898.52 381.097C1905.94 384.34 1904.02 379.695 1906.61 376.068C1907.63 374.639 1916.55 365.822 1917.69 365.344C1918.83 364.866 1920.66 364.637 1920.02 366.617L1913.89 376.587L1927.4 371.412C1927.25 376.811 1919.91 379.367 1917.97 382.266C1917.69 382.682 1915.23 391.359 1915.22 391.858C1915.16 394.305 1917.85 399.106 1916.09 402.431L1923.23 406.172C1917.61 410.724 1910.71 403.221 1905.84 410.277L1921.17 443.011C1920.03 444.221 1916.27 439.67 1915.55 438.776C1911.69 433.986 1906.97 424.841 1904 419.167C1896.17 404.172 1890.05 388.127 1883.75 372.436C1880.08 374.041 1875.76 372.841 1872.27 373.932C1865.98 375.902 1862.11 381.014 1852.63 382.35C1846.38 383.228 1821.93 382.828 1816.16 381.326C1806.98 378.936 1779.23 360.59 1772.07 353.752C1761.35 343.511 1749.59 320.114 1747.66 305.483C1747.23 302.204 1748.06 298.603 1747.52 295.247C1746.21 287.1 1743.26 279.036 1742.96 270.738C1754.09 281.4 1767.99 290.716 1781.97 297.164C1808.42 309.369 1835.66 306.444 1862.18 318.753C1871.45 323.055 1879.67 333.815 1882.82 343.313C1883.44 343.449 1884.18 343.485 1884.81 343.381C1884.33 345.007 1883.84 347.252 1885.32 348.566L1886.88 342.347C1886.61 341.942 1885.37 343.287 1884.81 343.386V343.391ZM1808.95 133.756C1798.45 133.512 1789.64 134.681 1779.87 129.594C1781 134.301 1776.37 132.036 1774.19 134.837C1773.25 136.058 1772.25 139.897 1772.67 141.394L1775 142.937C1781.33 140.645 1788.54 135.922 1795.18 135.029C1800.35 134.333 1805.97 137.923 1808.95 133.761V133.756ZM1769.47 144.111C1766.55 136.785 1760.28 135.003 1752.85 135.829C1757.85 140.49 1761.76 145.675 1769.47 144.111ZM1876.49 257.24C1876.82 255.281 1875.27 253.79 1873.38 254.143L1874.43 257.245H1876.48L1876.49 257.24ZM1904.54 268.665L1904.03 262.446C1901.74 264.155 1901.68 267.652 1904.54 268.665ZM1899.24 270.858L1892.07 270.749C1893.1 274.718 1892.36 278.428 1896.77 280.075L1899.24 270.863V270.858ZM1904.54 271.783C1900.66 271.066 1903.33 278.688 1901.43 281.125C1898.37 278.865 1896.07 281.603 1900.11 282.32L1900.39 288.378L1897.2 288.944L1893.12 330.932C1901.33 327.835 1905.72 316.742 1913.9 312.767C1909.56 309.858 1905.82 314.139 1903.53 307.561L1905.58 307.073C1906.58 300.994 1897.91 299.788 1900.48 294.4C1903.02 289.064 1901.35 291.012 1902.01 286.144C1902.66 281.343 1905.61 277.004 1904.54 271.783ZM1794.17 344.659C1793.75 343.932 1782.62 337.037 1780.41 335.057C1770.98 326.624 1773.85 320.961 1769.29 310.871C1766.68 305.093 1756.36 291.511 1751.78 286.851C1750.79 285.843 1750.43 284.876 1748.69 285.276C1749.9 304.433 1752.33 321.278 1763.85 337.073C1773.62 350.473 1792.52 364.528 1806.96 372.888C1816.18 378.224 1818.19 375.543 1828.22 375.527C1832.07 375.522 1838.15 378.738 1841.16 374.54C1835.91 372.685 1831.4 369.287 1826.28 367.084C1816.94 363.063 1799.53 360.345 1795.21 350.375C1794.33 348.338 1794.81 345.745 1794.18 344.659H1794.17ZM1829.74 317.433C1822.67 315.256 1815.86 311.084 1808.95 308.621C1799.43 305.223 1789.58 303.43 1779.9 299.243C1772.67 296.12 1766.18 291.709 1759.08 288.388C1765.82 295.569 1772.58 303.015 1779.85 309.671C1786.58 315.833 1795.21 320.857 1801.18 327.804C1805.36 332.672 1807.77 339.385 1812.04 343.942C1817.96 350.265 1837.13 359.68 1845.65 362.257C1846.68 362.569 1848.76 364.019 1849.47 362.59C1847.73 358.906 1844.07 356.817 1841.78 353.674C1835.36 344.872 1837.19 331.373 1833.87 321.086L1835.95 320.561C1840.48 329.306 1840.91 339.391 1844.84 348.535C1850.23 361.109 1861.08 371.111 1875.44 365.702L1865.07 357.378L1867.13 355.825L1851.55 347.517C1850.69 342.804 1858.54 346.987 1859.67 346.353L1864.02 341.796C1864.26 340.897 1854.6 328.375 1853.12 326.765C1850.62 324.032 1839.81 314.019 1837.01 312.752C1829.78 309.457 1821.68 310.975 1814.14 309.141L1829.73 317.423L1829.74 317.433Z" fill="#506C46"/>
<path d="M124.579 895.535C123.124 895.727 121.996 895.353 120.707 894.74C118.102 893.503 102.685 877.111 101.973 875.048C101.401 873.39 98.5781 854.327 98.5937 852.446C98.6145 849.692 103.288 837.991 102.757 837.42L72.5873 859.689C70.4144 866.547 62.2065 868.584 59.2747 873.375C56.1142 878.539 58.443 883.803 54.4924 888.313C47.0434 896.813 37.6347 896.086 30.534 900.71C23.9323 905.012 26.2091 910.104 23.2566 914.198C21.7023 916.355 16.0519 920.542 13.3748 918.911C10.703 917.285 9.80369 901.786 10.5158 898.356C12.5171 888.656 24.738 883.829 28.985 875.822C16.0103 875.017 -4.47571 891.274 -12.5745 874.788C-8.17161 873.453 -3.42567 873.842 0.920001 872.169C4.08569 870.948 7.1942 867.846 10.5626 866.231C13.3904 864.874 16.7121 866.719 14.4353 863.368C23.9947 867.701 36.6939 867.005 47.1578 866.454C50.5522 866.277 54.1285 864.661 57.5697 864.396C59.7114 864.23 61.3852 865.971 64.3533 865.02C67.8881 863.887 68.5535 858.993 70.9134 856.452C78.7159 848.05 96.7016 840.745 104.733 830.556L114.183 817.702C113.986 826.114 122.271 829.839 126.076 835.404C130.495 841.867 137.767 856.525 137.902 864.199C138.167 879.199 126.898 882.239 124.579 895.54V895.535ZM103.807 848.819C104.785 849.926 111.911 842.73 112.073 842.013C112.452 840.329 107.649 837.83 106.334 837.461C104.218 836.864 105.117 837.919 104.811 838.911C103.833 842.065 103.672 845.536 103.802 848.819H103.807ZM104.852 861.279C105.991 868.46 106.287 875.536 113.944 878.643C121.258 881.61 125.655 876.57 132.377 873.796C131.472 866.49 133.655 856.135 129.315 849.807C123.602 841.478 113.897 847.25 109.026 853.532L109.063 854.987C111.558 855.189 113.102 858.832 113.928 861.024C114.505 862.562 117.541 872.72 114.713 872.668C109.775 868.34 112.223 863.243 104.852 861.274V861.279ZM24.8264 899.686C22.8927 897.603 13.2085 911.096 15.4853 914.204C17.8141 916.9 25.6945 900.622 24.8264 899.686Z" fill="#506C46"/>
<path d="M52.8862 180.435L74.7237 180.975L83.6022 168.053L87.163 157.615L86.0973 164.286L88.2806 165.508C89.1019 170.527 74.3807 192.541 71.0694 198.07L68.8342 194.916C65.5022 193.373 61.6087 200.673 61.4216 202.933C61.3644 203.64 64.5405 215.985 64.8888 216.712C69.0681 225.42 87.1734 221.352 92.2156 215.06C95.163 211.387 96.213 205.531 98.417 201.535C101.11 196.667 106.048 192.105 107.28 186.431C108.21 182.155 106.11 177.64 106.921 173.177L108.975 185.111C109.411 202.211 103.574 205.276 95.0538 217.887C93.9882 219.461 93.7127 221.918 92.5847 223.727C85.5255 235.048 67.6282 232.398 56.1454 231.442C51.3423 239.527 51.6594 251.794 43.5399 257.234C43.0564 255.265 45.1721 254.153 45.3384 252.454C45.4788 250.999 44.3872 249.29 44.5743 247.466C44.8082 245.139 46.716 243.523 46.7472 240.119C46.7939 234.679 42.599 230.819 42.4275 226.6C42.3443 224.558 42.5834 212.711 42.7758 211.163C42.9993 209.345 45.0941 208.129 45.328 206.747C45.6139 205.089 43.9973 202.226 44.5691 200.143C41.8193 199.836 42.9265 200.205 42.4795 201.676C41.3462 205.391 40.6445 209.324 39.4489 213.028C36.2001 217.757 29.3125 200.725 28.3508 199.223C23.7504 192.006 19.5919 189.808 11.3216 187.704L28.9798 213.127C29.1461 213.896 27.8934 213.834 27.4411 213.631C22.9967 211.636 13.3333 194.116 9.22153 189.273C2.58345 181.453 -4.41849 180.57 -13.4061 176.538C-14.7629 175.93 -16.0416 177.151 -15.7193 174.704C-15.5478 171.15 -8.49386 170.09 -5.76481 170.194C-4.91751 170.225 8.7381 175.156 10.1832 175.858C19.935 180.612 28.4184 195.711 34.9213 204.019C35.5867 204.866 34.9005 205.936 37.2969 205.323C35.0357 197.446 43.753 182.69 49.0967 176.642C60.6263 163.59 80.4677 156.545 89.7932 146.2C91.6386 144.153 91.4774 141.815 92.9329 139.996C94.3884 138.178 98.6977 136.53 100.668 134.759C101.271 145.275 86.929 158.291 78.3728 162.816C68.5275 168.027 58.0896 167.825 52.8758 180.414L52.8862 180.435ZM49.7621 185.641C47.0642 185.142 47.9271 186.14 47.2098 187.704C46.1078 190.089 45.1201 193.409 44.5847 196.017C48.1663 194.173 49.5074 189.408 49.7673 185.646L49.7621 185.641Z" fill="#506C46"/>
<path d="M1853.63 403.595C1851.71 406.011 1845.58 406.915 1842.44 407.456C1829.19 409.758 1815.56 406.287 1803.76 412.407L1819.63 414.901C1826.44 425.953 1837.85 428.717 1850.03 430.546C1852.88 430.977 1849.14 426.93 1852.06 428.499C1853.73 429.398 1855.14 431.814 1857.79 431.616C1861.35 436.345 1845.89 432.754 1844.79 432.65C1841.72 432.37 1838.63 432.92 1835.56 432.526C1828.54 431.611 1823.9 427.2 1817.27 425.376C1816.5 426.369 1822.31 437.15 1823.17 437.893C1824.03 438.636 1828.31 440.065 1829.71 440.449C1836.67 442.356 1849.74 441.675 1857.16 440.834C1862.67 440.205 1867.73 436.817 1873.38 436.786C1867.07 431.024 1856.27 430.925 1850.52 423.817C1851.17 422.596 1853.61 423.49 1854.68 423.812C1861.24 425.776 1867.7 428.057 1874.4 429.533C1877.01 426.847 1860.82 419.832 1859.5 419.001C1858.45 418.336 1856.29 416.855 1859.32 417.099C1867.69 419.323 1876.63 424.768 1884.58 427.169C1892.91 429.684 1898.47 427.028 1906.13 433.663C1908.42 435.648 1909.32 438.423 1911.88 440.371C1918.84 445.661 1929.85 447.651 1934.68 456.504C1925.66 456.193 1918.38 450.3 1910.44 446.996C1901.08 443.089 1891.51 440.122 1881.21 439.867C1860.19 439.348 1848.95 460.474 1821.74 447.375C1810.34 441.888 1804.42 434.765 1796.45 425.927C1789.56 418.279 1776.51 413.971 1766.35 413.956L1775.51 411.093C1789.7 413.519 1800.95 403.798 1813.11 399.969C1823.62 396.654 1842.47 402.385 1853.63 403.601L1853.63 403.595Z" fill="#506C46"/>
<path d="M150.555 400.483C149.822 402.203 145.824 403.377 144.119 403.902C131.831 407.664 129.097 404.432 118.835 404.795C106.667 405.227 98.8017 421.043 90.3079 427.984C79.2877 436.989 49.6841 448.446 36.2677 442.496C31.6049 440.428 32.6289 436.984 30.3573 435.944C27.4619 434.619 18.7862 434.089 14.664 432.936C8.35345 431.175 -0.639397 425.392 -5.03705 424.55C-9.43471 423.708 -13.4529 426.192 -17.7726 425.371C-15.4542 418.528 -5.55687 420.923 0.103941 418.071C1.43987 417.395 1.34631 415.608 2.61466 415.161C7.19945 413.556 15.7141 416.112 20.6679 416.044C20.2885 424.134 13.9623 418.268 10.3028 421.749C10.3495 423.209 31.4022 432.832 34.6354 432.619C36.8914 432.474 41.1435 429.533 44.3092 428.748C54.6536 426.192 71.1734 425.823 79.9323 422.815C84.829 421.131 95.5476 411.347 101.406 407.939C102.747 407.16 111.958 403.403 111.069 402.556C87.1942 396.861 63.0954 388.101 38.3417 388.008C32.8368 383.176 59.0045 383.742 60.7199 383.82C91.2591 385.218 120.494 395.994 150.555 400.478V400.483Z" fill="#506C46"/>
<path d="M549.561 81.8496C543.454 76.3213 519.168 70.7046 512.888 74.5339C512.202 74.9548 511.927 76.3421 511.033 77.0851C510.138 77.8281 508.392 77.5007 508.049 77.7969C507.706 78.0931 509.172 80.348 507.945 82.2133C504.41 87.5962 495.214 88.6509 489.309 88.0846C487.573 89.768 495.526 97.3124 497.101 98.4503C500.387 100.835 507.004 102.196 508.761 103.932C513.387 108.504 508.922 119.441 523.591 116.09C521.975 113.684 518.31 114.703 518.383 110.411C524.465 107.46 535.771 108.998 538.141 116.09L529.824 116.106L529.886 120.184C532.667 120.138 534.887 120.127 535.043 123.359C537.148 124.944 539.461 118.407 540.527 117.451C542.05 116.09 545.153 115.783 546.999 114.053C548.844 112.323 548.865 109.902 550.3 108.774C553.101 106.566 560.821 105.407 564.106 102.612C564.88 109.013 555.581 110.177 553.231 113.014C551.604 114.978 552.103 117.784 550.663 119.789C549.478 121.437 545.959 122.424 544.446 123.957C541.905 126.544 542.164 130.368 537.403 131.444C529.642 133.2 526.112 129.48 519.869 128.643C511.968 127.588 500.283 130.285 493.073 126.352C486.04 122.522 487.209 115.991 485.723 109.819C484.231 103.61 481.507 97.9047 481.897 91.3268C472.977 89.2641 463.729 88.0898 455.36 84.0994C451.971 82.4835 447.776 81.2157 447.755 76.659C458.926 79.7557 470.84 83.6474 481.933 78.1138C485.66 76.2537 487.615 73.5311 492.194 71.7594C505.824 66.4804 515.685 66.1271 529.845 69.9045C531.784 70.424 553.039 78.197 549.567 81.8496H549.561ZM513.2 117.14H511.131V120.241H513.2V117.14ZM529.824 126.487L521.517 125.448C521.995 127.937 528.867 128.7 529.824 126.487Z" fill="#506C46"/>
<path d="M1771.54 562.374C1760.25 563.491 1753.25 550.05 1742.41 556.841L1742.46 566.526C1748.1 563.777 1749.68 568.505 1753.37 571.711L1752.85 566.536C1760.86 566.536 1766.79 571.041 1769.38 578.497C1765.44 580.892 1763.33 580.601 1764.28 586.244C1765.06 587.153 1767.88 584.591 1768.46 583.682C1769.87 581.458 1769.29 577.894 1771.54 576.917C1772.01 580.404 1773.85 585.355 1773.6 588.727C1773.54 589.569 1771.27 599.103 1771 599.711C1766.25 610.508 1754.22 591.003 1750.69 588.925C1747.7 587.163 1743.88 586.956 1740.45 584.628C1726.73 575.332 1724.47 555.23 1725.85 540.084C1726.92 528.336 1736.06 516.672 1736.23 504.264C1737.02 503.407 1748.94 512.505 1750.23 513.632C1764.09 525.775 1770.8 544.22 1771.55 562.374H1771.54ZM1738.29 510.478C1735.55 510.26 1736.57 510.369 1736.25 512.058C1732.89 530.046 1725.88 550.403 1730.69 568.417C1731.78 572.511 1734.85 575.629 1738.29 577.946C1736.84 572.828 1733.2 567.31 1733.06 561.813C1732.9 555.209 1736.51 538.879 1739.03 532.535C1739.59 531.142 1741.31 531.724 1741.51 529.724C1742.12 523.691 1738.6 516.5 1738.29 510.484V510.478ZM1748.01 521.525C1747 520.808 1746.4 517.072 1743.49 519.301L1749.59 524.627L1761.08 550.258L1768.42 551.993C1769.74 550.871 1760.79 531.095 1759.1 528.898C1757.18 526.388 1750.93 523.608 1748.01 521.525Z" fill="#506C46"/>
<path d="M1826.96 817.38C1827.24 817.795 1828.63 817.993 1829.12 818.777C1834.04 826.68 1822.95 830.967 1819.9 835.373C1818.26 837.747 1818.3 841.083 1816.18 843.073C1810.36 848.555 1799.57 848.409 1792.07 847.526C1778.6 845.936 1754.11 831.881 1741.5 824.347C1740.22 823.584 1739.35 822.331 1738.3 821.318C1742.45 820.85 1745.4 817.582 1749.45 816.902C1753.84 816.164 1758.97 817.572 1762.96 815.868C1767.11 814.096 1772.4 807.185 1774.31 803.117C1781.25 803.299 1789.9 805.31 1796.72 803.917C1806.2 801.984 1811.82 791.177 1821.41 803.684C1825.12 808.521 1824.7 814.002 1826.95 817.38H1826.96ZM1822.46 820.814C1818.24 820.554 1814.79 817.795 1811.01 816.143C1809.99 815.691 1808.39 816.382 1807.17 815.868C1804.29 814.647 1801.68 810.043 1798.02 809.378C1795.42 809.368 1793.28 814.221 1791.27 815.088C1789.11 816.024 1786.83 815.223 1784.82 815.909C1780.24 817.484 1773.88 820.18 1774.84 826.296C1775.5 830.536 1791.81 843.109 1795.91 843.681C1808.81 845.473 1816.2 839.296 1822.45 829.122C1818.89 828.343 1815.07 830.021 1811.82 829.881C1808.09 829.72 1803.12 826.888 1800.08 826.966C1796.7 827.054 1793.03 831.715 1789.21 829.631C1792.1 827.823 1798.61 823.828 1801.64 823.272C1806.92 822.3 1817.56 826.53 1822.45 820.814H1822.46Z" fill="#506C46"/>
<path d="M1923.26 124.383L1914.95 127.526C1915.84 129.506 1918.88 129.963 1920.19 132.13C1923.22 137.164 1919.31 136.188 1919.02 138.339C1918.21 144.277 1921.86 153.916 1921.25 156.893C1921.06 157.787 1918.95 158.083 1918.14 159.273C1916.71 161.351 1918.57 164.058 1915.99 165.44C1905.35 162.068 1906.11 177.655 1899.37 183.043L1905.03 184.581L1906.21 182.451C1903.95 174.522 1916.52 165.596 1917.59 178.398C1915.9 179.91 1913.12 181.038 1911.54 182.461C1910.49 183.412 1910.78 185.059 1909.79 186.052C1907.52 188.343 1897.6 187.096 1894.11 188.172C1890.61 189.247 1888.1 194.412 1884.82 196.012L1886.8 188.842L1872.4 184.005C1876.23 173.603 1883.66 164.962 1884.82 153.464C1886.66 153.219 1885.85 155.817 1885.73 156.96C1885.42 159.834 1884.19 166.464 1883.26 169.041C1882.59 170.916 1875.84 179.806 1876.51 180.44C1880.21 178.258 1883.77 182.352 1886.85 181.001C1888.73 180.175 1893.19 171.987 1895.21 169.555C1897.46 166.838 1902.77 164.988 1903.5 160.125C1903.99 156.929 1902.6 148.044 1898.32 151.396L1896.75 145.15L1894.14 162.806C1888.47 159.6 1893.07 153.173 1892.08 148.273L1888.11 148.117L1886.81 144.755C1891.71 142.573 1890.23 137.076 1892.87 132.982C1895.65 128.674 1899.1 129.817 1902.37 127.937C1908.15 124.622 1918.72 113.939 1923.25 124.383H1923.26ZM1907.67 132.717C1902.6 133.403 1896.92 136.349 1896.24 142.043C1899 142.36 1899.15 139.393 1901.05 138.037C1903.57 136.245 1906.99 136.681 1907.67 132.717Z" fill="#506C46"/>
<path d="M1868.18 95.3432L1869.25 95.9719C1871.38 112.443 1861.38 139.871 1840.9 136.608C1829.45 134.779 1833.29 121.821 1831.83 112.993L1841.35 132.535C1843.5 133.127 1849.57 131.885 1849.5 129.085C1844.16 127.729 1842.37 121.8 1839.08 117.664C1838.18 116.521 1836.44 116.106 1835.5 115.004C1834.16 113.445 1834.35 111.227 1831.77 110.214C1833.71 99.4167 1831.4 90.6617 1837.6 80.8832C1840.78 75.8589 1844.85 70.6215 1851.32 72.253C1856.59 73.5831 1854.53 74.191 1855.71 75.625C1855.03 75.5627 1854.32 75.6562 1853.64 75.6198C1853.87 77.6774 1853.18 80.2961 1853.64 82.1977C1853.88 83.1694 1857.07 82.2445 1854.67 87.035C1855.86 88.2872 1860.82 81.4807 1860.91 80.8157C1866.15 86.7233 1868.01 86.2817 1868.18 95.3432L1861.44 83.9331C1855.33 94.0026 1850.82 103.225 1839.14 107.881C1838.17 109.268 1842.29 113.409 1842.81 115.072C1843.3 116.62 1842.4 118.226 1842.8 119.259C1844.06 122.538 1851.4 123.702 1850.52 128.56C1863.34 125.827 1868.39 106.509 1868.18 95.3484L1868.18 95.3432Z" fill="#506C46"/>
<path d="M1860.91 80.8105C1859.4 79.1115 1857.56 77.8593 1855.72 75.6199C1857.99 75.8329 1861.22 78.3996 1860.91 80.8105Z" fill="#506C46"/>
<path d="M1716.91 93.8676C1714.47 92.4752 1712.52 89.7837 1708.41 89.3005C1704.81 88.8797 1703.04 90.9892 1700.3 91.1295C1698.04 91.2438 1689.45 90.4956 1686.83 90.1786C1682.69 89.6798 1676.44 86.8377 1676.25 82.1978C1676.17 80.3585 1677.54 78.8206 1677.52 77.2151C1677.4 70.393 1675.17 63.7215 1678.04 56.9462C1680.22 57.5333 1678.06 59.8818 1680.73 62.0277C1684.9 65.3738 1693.79 64.2567 1697.77 68.881C1688.99 68.6368 1677.36 64.3191 1679.12 77.6463C1685.81 78.0256 1689.62 86.8065 1696.73 85.492L1691.55 79.2518C1695.86 77.2774 1699.14 82.1407 1702.76 83.6215C1707.15 85.4141 1713.41 86.1103 1718.34 87.7782C1722.11 89.0563 1723.48 92.5687 1726.92 89.711C1732.56 85.0348 1727.7 79.5168 1727.92 73.5468C1730.87 76.2798 1734.2 77.5944 1738.3 77.6879C1733.99 72.9545 1730.39 67.1975 1725.28 63.1968C1723.7 61.9601 1720.61 59.0245 1718.55 60.5729C1721.18 62.0849 1725.51 65.8622 1725.32 69.3902C1721.92 66.1428 1719.64 62.0277 1715.96 59.0193C1713.92 57.3567 1706.81 53.0545 1704.4 52.8363C1697.58 52.2232 1694.5 56.1045 1689.94 56.889C1688.79 57.0865 1683.42 57.7827 1683.24 55.9122C1691.86 55.7615 1690.82 49.4382 1701.34 50.7995C1721.26 53.3767 1731.09 63.6176 1744.03 77.6827C1750.2 84.3801 1753.16 92.1998 1762.18 95.8576C1758.09 100.503 1751.57 93.5455 1748.13 93.2909C1744.72 93.0415 1739.22 96.0863 1735.56 96.3201C1732.69 96.5019 1730.61 95.2601 1728.47 95.3692C1722.39 95.6706 1725.14 98.5595 1716.91 93.8676H1716.91ZM1740.37 89.0927C1741.27 87.8197 1737.96 84.3177 1736.23 84.962C1737.02 89.1447 1733.98 90.3293 1732.06 93.2545L1740.37 89.0927Z" fill="#506C46"/>
<path d="M1795.47 75.6199C1796.06 75.1886 1796.96 76.6591 1797.27 77.428C1801.21 87.2793 1801.73 96.1745 1795.49 105.2L1790.3 104.628L1790.26 100.523L1778.22 99.5778L1768.43 89.129C1769.62 101.672 1781.91 104.114 1788.17 112.474C1789.64 114.427 1792.38 118.714 1791.82 121.291C1786.89 114.937 1777.11 110.494 1772.76 103.999C1769.79 99.5674 1764.79 85.3828 1765.2 80.2598C1765.34 78.4412 1766.93 78.992 1767.32 77.9736C1767.92 76.4564 1766.77 73.8325 1768.95 72.5232L1770.6 79.6778C1772.97 81.6574 1777.38 76.524 1777.49 75.1211C1777.62 73.5 1773.12 68.6211 1778.29 65.275C1780.68 71.3126 1782.99 70.1123 1786.66 72.4608C1788.99 73.952 1790.3 79.8285 1793.83 78.7374L1795.45 75.6355L1795.47 75.6199ZM1782.96 87.0299C1783.99 84.5359 1783.65 81.9484 1780.91 80.8105C1780.98 82.494 1780.77 86.6558 1782.96 87.0299Z" fill="#506C46"/>
<path d="M23.8024 233.38L25.8713 232.731C26.1312 224.771 34.6302 225.088 30.035 216.775L33.7621 220.859C34.599 221.066 39.6153 217.466 39.3553 220.407C39.3086 220.921 33.0552 225.202 31.5633 227.13C28.512 231.068 27.9558 234.279 26.8537 239.028L28.9746 240.629C25.2527 240.644 27.1708 249.415 24.868 252.621L19.6387 263.469L23.74 242.764C17.8765 239.751 9.43465 243.31 4.65233 242.712C2.13641 242.4 -2.45358 238.893 -6.10269 239.366C-8.87852 236.55 -7.20991 233.401 -7.61536 231.027C-7.86488 229.577 -9.26319 228.278 -9.41913 226.574C-9.8038 222.339 -9.33076 217.964 -9.39834 213.725C-7.2203 214.379 -4.51725 211.849 -3.17612 212.052C-2.21446 212.197 11.8362 219.934 13.7076 221.129C18.126 223.955 23.7036 227.572 23.7972 233.38H23.8024Z" fill="#506C46"/>
<path d="M1651.73 873.411C1651.28 873.796 1644.41 877.594 1643.99 877.703C1635.05 879.974 1626.43 856.208 1624.98 849.308L1627.12 824.965L1630.12 834.926C1629.58 843.062 1631.39 851.017 1634.63 858.442C1635.87 861.263 1641.61 870.829 1643.71 872.216C1645.54 873.432 1649.56 868.844 1650.44 867.462C1657.97 855.574 1646.14 848.804 1639.58 840.537C1641.64 842.21 1646.43 840.439 1646.75 840.636C1648.06 841.457 1650.91 849.23 1651.29 849.599C1651.82 850.124 1653.39 849.942 1653.99 850.477C1655.55 851.89 1655.74 854.395 1658.29 854.01L1654.11 845.499C1647.87 842.164 1644.62 826.758 1640.33 823.188C1637.61 820.933 1632.2 822.061 1630.23 818.746C1635.39 816.294 1643.46 820.388 1648.14 823.157C1652.38 825.667 1654.81 827.823 1656.26 832.692C1657.32 836.246 1660.58 850.352 1660.41 853.464C1660.19 857.502 1654.81 870.819 1651.73 873.416V873.411Z" fill="#506C46"/>
<path d="M389.562 45.5257C390.742 41.9562 393.055 39.0309 394.5 35.4198C397.52 27.8703 401.07 17.2189 397.047 9.49793C396.283 8.03271 395.664 6.74935 393.715 7.12864C395.696 22.4199 386.89 41.6704 376.582 52.805C375.334 54.156 374.783 54.5301 375.017 52.2855C382.513 43.5877 387.269 32.5933 390.596 21.6665L377.06 30.4786L376.104 32.4634C378.126 40.8703 374.092 51.2047 366.705 55.9069C365.271 54.3638 372.137 49.8538 372.714 47.9106C374.918 40.4702 368.416 32.4582 375.126 24.3684C377.803 21.1366 388.07 21.069 388.47 15.9771C389.094 7.99115 373.146 12.8752 368.785 13.3532C367.703 6.9312 374.43 8.06909 377.091 4.02674L361.512 11.8049C370.942 2.3381 383.241 -4.13588 396.179 3.11747C409.039 10.3241 398.508 37.9242 389.572 45.5309L389.562 45.5257Z" fill="#506C46"/>
<path d="M1857.79 236.503C1858 238.457 1855.68 237.366 1854.66 237.033C1853.19 236.55 1848.33 233.697 1847.41 234.425L1850.53 240.634L1847.41 241.153C1848.87 244.136 1851.61 245.98 1853.5 248.568C1854.42 249.825 1854.38 252.184 1855.19 253.109C1856.33 254.418 1858.71 253.826 1860.38 255.192C1862.81 257.188 1867.57 267.673 1870.26 270.733L1864.38 266.249C1860.81 259.396 1851.01 255.53 1843.9 252.969L1833.91 239.61C1839.23 244.047 1841.77 249.872 1849.47 249.477C1847.16 248.298 1846.57 241.112 1846.24 240.774C1845.73 240.254 1841.78 240.805 1840.36 239.376C1838.45 237.454 1840.55 233.209 1834.17 232.575C1831.38 232.3 1826.25 234.96 1827.13 229.234C1832.63 232.497 1839.95 231.177 1846.59 232.627C1850.47 233.474 1853.99 235.459 1857.79 236.503Z" fill="#506C46"/>
<path d="M442.552 119.218C445.645 118.028 450.64 121.764 452.907 120.808C453.598 120.517 456.743 117.218 456.888 116.464C457.736 112.006 453.172 113.393 450.848 112.5C443.207 109.569 436.626 102.799 428.21 98.7204C426.801 98.0398 425.346 99.3855 425.928 96.3823C430.185 97.0474 435.332 99.3439 439.074 101.401C444.834 104.571 447.615 106.478 453.874 109.455C460.891 112.796 463.688 119.805 458.183 125.998C453.582 131.179 440.826 120.72 442.552 119.218Z" fill="#506C46"/>
<path d="M358.024 47.2456C354.178 50.9606 350.565 50.1552 351.033 58.4945C351.21 61.6899 355.399 65.9349 351.121 68.351C346.209 62.0796 349.796 56.9566 349.562 50.1864C349.531 49.2719 347.857 48.1185 347.961 46.1389C348.091 43.6553 351.506 39.8571 350.082 36.1889C351.844 35.9655 351.069 38.7192 352.779 39.244C354.786 39.8623 360.244 36.0434 362.531 39.8467C363.015 41.4419 359.168 46.1441 358.03 47.2456H358.024Z" fill="#506C46"/>
<path d="M1457.75 895.53C1458.47 891.69 1460.99 888.25 1461.65 884.385C1462.67 878.352 1460.18 871.032 1467.09 867.509C1465.96 873.151 1468.12 878.051 1466.4 883.938C1465.29 887.726 1461.2 893.431 1457.76 895.53H1457.75Z" fill="#506C46"/>
<path d="M529.829 77.7086L528.779 80.8053C534.435 80.4728 534.144 84.3852 535.984 86.5623C537.476 88.3289 540.506 87.7573 541.255 90.1474C536.8 93.6494 522.328 79.7402 524.636 77.7086H529.824H529.829Z" fill="#506C46"/>
<path d="M1794.39 67.317L1784.36 58.1515L1774.67 54.873C1779.49 51.4801 1798.39 62.2147 1794.4 67.3118L1794.39 67.317Z" fill="#506C46"/>
<path d="M375.007 62.142C369.985 67.53 362.594 71.6451 355.867 74.6379L353.2 72.4868C355.737 66.5324 358.944 69.8058 362.542 68.9745C366.523 68.0496 371.061 63.3578 375.012 62.142H375.007Z" fill="#506C46"/>
<path d="M472.665 48.6276C470.596 48.1132 472.031 44.1332 471.428 42.1016C470.622 39.3946 465.46 38.0489 466.448 34.1105C473.845 34.9054 476.335 42.6628 472.665 48.6276Z" fill="#506C46"/>
<path d="M1820.02 217.133C1820.98 218.063 1824.94 222.428 1824.03 224.028C1819.4 218.993 1814.44 214.598 1808.96 210.55C1812.73 211.168 1817.33 214.52 1820.03 217.133H1820.02Z" fill="#506C46"/>
<path d="M280.447 225.083C278.071 229.556 272.504 230.892 267.977 232.326C270.259 228.076 276.117 226.662 280.447 225.083Z" fill="#506C46"/>
<path d="M359.417 14.3976C358.409 15.6653 352.883 24.2852 351.105 22.6797C351.714 21.1209 357.759 12.8804 359.417 14.3976Z" fill="#506C46"/>
<path d="M366.695 62.1212L373.957 54.8678C373.546 57.7878 369.559 61.7419 366.695 62.1212Z" fill="#506C46"/>
<path d="M1514.89 877.874L1507.62 873.744C1510.58 873.531 1513.62 875.183 1514.89 877.874Z" fill="#506C46"/>
<path d="M74.7185 271.778C74.4482 269.595 76.9537 267.694 78.8563 266.587C79.1266 268.769 76.621 270.671 74.7185 271.778Z" fill="#506C46"/>
<path d="M70.5496 275.939C69.801 277.628 68.2676 279.374 66.3962 279.031C67.1448 277.342 68.6782 275.596 70.5496 275.939Z" fill="#506C46"/>
</g>
<defs>
<clipPath id="clip0_1_616">
<rect width="1967" height="936" fill="white" transform="translate(-24)"/>
</clipPath>
</defs>
</svg>
