<svg width="116" height="69" viewBox="0 0 116 69" fill="none" xmlns="http://www.w3.org/2000/svg">
<path d="M63.1278 47.5175C62.5653 52.3106 61.2523 52.9761 57.91 56.3901L56.7961 62.1639L57.4506 62.5292C59.8439 61.6041 60.2096 59.5084 61.4353 57.9646C62.0088 57.2428 63.1242 56.793 63.8131 55.8933C66.1532 52.8422 63.9975 49.9702 67.6581 47.8307C68.6866 49.5146 65.9667 50.1564 65.6328 51.2779C65.2632 52.5161 66.0186 54.1399 64.9239 56.1796C63.9172 58.0541 62.8618 57.8461 61.8707 58.9743C60.1279 60.9558 60.0069 62.8121 56.8814 63.6661C53.2181 64.6696 50.6649 61.1772 50.3713 57.8196C49.893 52.3402 53.7299 49.3807 57.3699 45.806C58.4957 44.6991 59.7677 44.4758 60.7571 42.7836C61.6718 41.2222 60.9401 39.5985 61.9713 38.195C58.9895 36.8699 55.5951 37.0801 52.555 35.9478C45.1224 33.1829 38.0086 27.0938 30.1767 24.9425C28.6353 24.5195 27.241 24.186 25.675 24.7462L26.6055 25.9767L25.0772 25.0036C22.6036 28.902 14.8395 35.9815 10.0761 35.9838C9.03666 35.9836 6.13738 35.261 5.34571 34.7569L-0.000313327 31.3529L0.775343 30.1347C4.20537 31.6227 7.13998 34.4623 11.0632 34.5179L16.2456 30.1166C15.9647 29.2826 9.80098 31.3491 13.0789 27.6685C11.9018 27.456 10.64 27.5183 9.46343 27.332C8.90316 27.2437 8.62739 27.8522 8.54617 26.7114C9.91831 26.685 11.2603 26.3215 12.5374 25.8135C14.5229 25.0263 18.4032 22.2685 19.9184 21.852C20.5606 21.6766 21.6643 22.1023 22.3973 21.7978L19.8129 20.7967C23.4624 21.1506 28.1266 22.3633 31.4989 23.8038C32.4488 24.211 32.9577 25.4459 34.1093 24.9697L34.7502 20.654C34.0618 15.8722 27.5226 17.6717 26.7437 13.6291L33.5064 15.7291L34.5534 12.6816C32.6911 11.7235 31.4242 8.01896 29.2392 8.9778C28.0887 9.48256 28.8082 10.7376 27.9331 10.088C27.4337 8.90222 27.4662 5.73079 29.0263 5.60494C30.9787 5.54423 32.3964 8.86356 33.7926 9.55496C33.9979 9.65771 34.6112 8.8496 35.2755 9.34128C36.561 11.3198 37.0637 13.8396 37.1474 16.1807L36.3526 16.0763L36.0359 18.2569L37.1641 16.8293C37.7848 17.8818 36.5025 18.9579 36.3419 20.2862C36.1542 21.8359 37.1913 24.2147 35.7441 25.7959L42.5268 29.1329C45.6832 28.4296 49.9018 28.5509 53.1182 27.8578C55.1857 27.4106 55.5147 26.4859 56.8952 25.9707C59.2801 25.0791 58.5343 27.6975 57.8175 28.921C56.9568 30.3943 52.4653 32.1723 54.2839 34.4065C55.5686 35.9849 58.2796 34.9185 60.0885 34.4356C62.5786 33.7699 64.9622 32.263 67.7402 32.859L63.9858 24.125C62.3614 22.2335 59.1924 22.3832 57.3519 21.5292C59.6141 21.3026 61.287 21.8158 63.2136 23.1113C63.4504 20.2095 62.2682 18.8682 60.2727 16.9489C59.2642 20.0574 55.5107 16.0584 54.5903 14.6668C54.0665 13.8736 54.461 13.1023 54.1232 12.6681C52.9945 11.219 50.3444 12.2641 48.7945 9.39539C48.2846 8.45209 48.6767 7.27969 46.9915 6.78236C46.9736 11.2262 53.6176 19.7938 57.3529 21.5277C56.752 21.5876 56.5179 21.9755 55.4495 21.8216C52.545 21.4007 50.644 18.8541 48.9262 16.7078C46.8796 14.1501 43.0002 8.53723 46.6663 5.89649C49.5268 3.83619 49.119 7.39804 50.0994 8.32088C50.4393 8.64045 54.525 11.3386 54.8019 11.3087C55.3951 11.2439 56.3854 8.92289 58.1455 10.4496C59.4026 12.9686 62.2136 15.2331 63.3678 17.708C63.9556 18.9674 63.7276 20.1046 64.0292 21.2333C65.0754 25.1496 68.2776 26.8233 70.6236 30.0206L81.7643 34.0123C83.2867 34.131 85.4229 31.8995 86.284 30.7293C86.7571 30.0875 86.607 30.3636 86.1685 30.2089C76.932 26.9206 74.0977 20.9549 70.7623 12.3996C70.127 10.7728 68.7049 7.11982 68.4127 5.57831C68.2991 4.97751 68.1974 4.34782 68.6293 3.82803L69.3239 4.68701C69.5666 4.51502 69.85 4.1778 70.1243 4.12478C70.9904 3.95876 79.0676 6.7302 80.3007 7.38433C83.7082 9.19099 86.1488 11.5549 89.0855 13.848C90.4647 14.9237 92.1436 15.5524 93.4423 16.8154C95.0688 18.3966 95.4375 20.6378 96.3944 22.4543C96.832 23.285 97.9998 24.0114 98.1366 24.9535C98.2735 25.8956 97.3025 28.2031 97.1165 29.3757C96.9468 30.4384 97.706 31.6951 96.5701 32.7741C99.0448 33.482 101.369 32.0382 103.772 31.5664C105.142 31.2978 106.953 31.5255 108.383 31.0717C108.473 30.4284 107.576 30.7745 107.522 30.7405L101.106 26.6553C99.4724 25.615 98.7419 23.4936 97.8808 22.1269C97.4347 21.4175 96.3084 20.9195 96.3995 20.23C100.088 22.4926 102.946 25.8978 106.472 28.3513C108.404 29.6955 110.524 31.7173 112.256 29.0373C111.172 28.3946 110.154 27.6153 109.052 26.9977C106.079 25.3387 104.049 24.9009 101.452 22.384C100.371 21.3366 94.8139 15.373 94.3211 14.5244C93.9029 13.8048 93.8309 11.6173 93.4834 10.6484C94.9109 11.1085 94.4523 12.5371 94.7615 13.1851C95.2888 14.2899 101.576 21.1348 102.78 22.0906C105.948 24.6065 109.89 26.1712 113.059 28.7133C115.38 26.9303 116.206 24.1799 119.157 22.925L118.749 22.1796C116.518 21.075 114.265 19.054 111.779 18.27C110.056 17.7272 107.633 18.3005 105.982 17.3138L111.104 17.3593C110.634 16.5081 108.646 16.0715 108.841 14.8525C111.209 16.3005 112.551 18.1562 115.52 18.345L119.196 20.1591C115.665 13.2521 108.43 7.47861 100.456 7.7933C102.444 5.78756 107.216 7.2257 109.579 8.14356C113.422 9.63444 115.873 11.6809 118.315 14.9777C119.452 16.514 120.967 20.2686 121.908 21.2762C122.297 21.6937 123.103 21.6762 123.191 21.8785C123.269 22.0568 122.854 22.7934 123.177 23.3385C123.957 24.6561 127.652 26.2481 127.011 28.128L127.61 28.5134C128.339 27.6758 129.737 28.6069 131.204 28.7288C141.043 29.5485 150.09 26.9694 159.699 27.1461C161.55 27.18 163.528 27.1097 165.077 28.3473C160.625 30.0299 155.545 28.5762 150.938 29.0305C145.309 29.5859 140.953 30.8166 134.974 30.367C132.995 30.2197 130.808 29.6344 128.833 29.2985C128.054 29.5908 128.524 37.1404 128.882 38.3261C130.865 37.4816 132.732 36.2324 134.848 35.6933C137.073 35.1256 151.147 34.7167 153.346 35.1434C156.429 35.7425 159.477 37.5502 162.943 37.0248C165.626 36.6194 168.821 35.0704 171.649 34.8047C171.984 31.5937 174.919 29.5273 170.485 28.4827C163.687 26.8826 161.351 25.9145 154.907 23.2896C149.56 21.1116 142.421 18.9718 136.666 19.6917L140.068 14.3482C143.912 8.31079 162.145 -0.3971 169.403 0.0140405C174.972 0.329056 184.47 6.12119 188.832 9.57305C189.951 10.4598 190.469 11.6271 191.358 12.4232C193.315 14.1764 195.364 15.8871 197.409 17.5369C197.87 17.6735 201.184 16.8367 201.947 16.6396C205.188 15.8033 207.832 14.8635 211.091 14.1203L216.329 12.9273C216.899 14.2378 215.552 14.2888 214.941 14.9219C212.855 17.074 212.808 17.1081 209.858 18.0137C207.201 18.8292 206.846 18.3923 204.713 18.3553C204.404 18.3502 198.9 19.3543 198.656 19.5449C197.623 20.3584 197.689 21.9856 196.801 22.8965L187.034 30.9601L187.268 32.5999C183.136 30.6954 184.266 35.3176 183.418 37.2591C182.309 39.7943 179.8 42.001 180.259 45.2968C183.034 44.5693 186.088 44.2351 188.383 42.3254C189.171 42.2606 186.996 46.4327 186.674 47.0502C186.317 47.7358 185.615 48.1421 185.331 48.6869C184.749 49.803 183.96 53.0768 183.204 53.8221C183.127 53.8981 182.375 54.1386 182.387 53.7448C182.915 52.3534 181.729 52.8056 181.469 52.1335C180.866 50.5679 183.198 46.6458 180.283 46.6092L179.545 47.424C178.299 41.1268 182.073 36.1982 183.55 30.282C181.623 28.5523 179.305 27.2781 176.68 26.9368L176.302 27.0996C176.022 27.6433 176.037 28.5271 175.73 28.9955C175.072 29.9986 174.138 28.9486 175.334 31.7293C172.346 34.314 174.289 34.9627 174.846 37.3236C175.423 39.7729 172.893 41.7966 172.145 43.6872C171.861 44.4025 172.206 45.3075 172.039 46.073C171.745 47.4259 171.259 48.7556 170.965 50.1109C170.11 48.8401 171.039 47.5498 171.234 46.2519C171.351 45.4778 171.102 44.5657 171.268 43.8831C172.001 40.8764 175.182 37.7136 172.053 34.9289C168.458 37.067 163.693 38.3913 159.45 37.8317C156.819 37.484 154.07 36.2687 151.689 35.9509C150.112 35.7418 148.64 36.4951 147.104 36.5631C141.08 36.8282 134.809 35.6152 129.227 38.7692C129.664 41.6985 129.493 43.6067 128.233 46.3421C126.711 49.6459 124.786 51.8121 123.628 55.2294C122.973 57.1624 120.671 60.1026 118.597 60.5238C118.059 60.6326 117.527 60.2744 116.993 60.3851C114.931 60.8126 115.173 63.0845 112.202 60.6454C110.076 58.9007 109.489 57.4247 110.394 54.8838C110.328 57.6689 112.647 59.7081 115.352 60.0774C115.582 60.1077 119.572 58.8244 119.765 58.6987C122.428 56.9657 120.991 55.6062 120.755 53.7674C120.502 51.7867 119.94 47.8482 120.698 46.176C121.123 45.2392 122.036 44.388 122.303 43.46C122.555 42.5811 121.217 39.3531 121.594 38.1107C122.016 36.7149 123.618 35.0521 123.544 33.222C120.736 33.7089 117.336 36.4651 115.873 38.8544C114.927 40.3964 114.915 43.2864 114.046 45.0253C113.458 46.2058 111.956 47.475 111.746 48.1359C111.535 48.7968 112.257 49.7914 112.086 50.7048C111.845 51.9906 110.818 53.6911 110.395 54.8823C110.426 53.5576 111.116 52.3966 111.233 51.1565C111.299 50.4595 110.769 49.6966 110.993 48.8489C111.412 47.2703 112.982 45.9032 113.576 44.3435C114.055 43.0823 113.836 40.3419 114.404 39.1568C114.727 38.4839 116.445 36.5055 117.049 35.8464C117.536 35.3144 120.212 33.7164 119.133 33.4204C114.931 33.903 110.537 33.326 106.385 33.8919C105.496 34.0132 99.4199 35.3083 99.1349 35.5737C97.9339 36.6907 99.5066 39.1357 99.6718 40.3471C99.7591 40.9892 99.8443 49.056 99.7578 49.5057C99.6861 49.8747 97.8389 55.5317 97.6197 56.0108C95.7644 60.0581 93.8814 61.2478 91.0478 63.9911C89.0565 65.9175 88.1331 68.0727 85.0151 68.7124C83.7299 68.9767 80.7143 68.6527 79.6969 67.8588C79.2069 67.4781 76.4596 64.2702 76.0806 63.6679C75.5866 62.8852 75.0026 60.4897 75.247 59.6572C75.4005 59.1363 78.0359 54.3463 78.5087 53.6678C79.1831 52.703 80.0834 52.3483 80.6858 51.5912C81.9449 50.0085 83.2585 47.7902 84.5057 46.3611C85.9655 44.6892 91.8355 42.949 93.9095 41.52C95.4031 39.8052 90.8962 37.8764 90.122 36.4511C88.9435 35.7652 80.2241 37.5578 78.136 37.7641C77.0109 37.8747 72.4652 37.7342 71.9004 38.0814C71.4931 38.3333 71.848 39.1994 71.4742 39.6853C70.8958 40.4384 68.6876 40.6477 68.1191 41.1493C67.365 41.8141 67.4887 42.7736 66.9576 43.5267L67.2081 41.1127L65.2921 40.7584L65.1761 43.5416C62.6182 44.3102 63.3919 45.2776 63.1279 47.524L62.1005 46.4423C61.6377 47.2905 61.5133 48.3326 61.8117 49.2572L63.1279 47.524L63.1278 47.5175ZM52.2186 58.592L53.0374 58.5441C52.9706 57.7819 54.0654 56.464 52.9638 56.0655L52.2196 58.5904L52.2186 58.592ZM56.6824 56.2873C55.1077 55.377 54.5826 57.4936 55.8231 58.3115L56.6824 56.2873ZM12.8613 26.6642C13.0465 27.3686 15.0784 26.4477 15.3564 26.1156C15.201 25.4388 13.1867 26.4568 12.8613 26.6642ZM16.4735 26.3886L17.8006 27.6676L18.188 27.0593L16.6642 26.0891L16.4735 26.3886ZM80.5979 59.1203L78.9844 57.9942C75.1056 59.5049 79.7004 64.1899 81.4025 66.0169C81.9069 65.2146 81.2958 64.4539 81.4816 63.511C81.9115 61.338 83.2166 61.4709 79.8743 60.3309L80.5969 59.1218L80.5979 59.1203ZM18.9715 25.8354L19.5763 26.2248L20.6617 25.2016C19.942 24.6317 19.3216 25.0293 18.9715 25.8354ZM87.2415 66.3021L87.9446 66.5371C88.7821 64.0715 91.878 63.6283 91.1441 60.841C90.9322 60.2764 89.8505 61.4523 88.8873 60.317C87.4608 58.6375 89.0307 57.663 88.9555 57.5314C88.2522 56.278 86.8104 57.4157 86.6885 57.381C85.3781 57.0171 86.4217 56.4035 86.4473 55.6077C86.4645 55.0881 86.0564 54.8756 86.2049 54.3084C86.5369 53.0483 87.7128 52.8004 88.1234 52.1016C88.2253 51.9281 87.756 51.6228 87.8007 51.3097C87.9935 49.9781 88.3811 48.2358 89.1126 47.1141C90.6091 44.8211 93.7133 46.6387 93.7183 42.9707L85.8542 46.5237C85.0646 48.2765 79.5109 53.1867 80.3549 54.8433C80.9986 56.106 82.8731 56.5928 83.9405 55.6248C83.2503 57.8018 84.5836 58.2512 85.0305 59.4487C85.2211 59.9589 84.7782 61.2751 85.0485 61.937C85.5302 63.1201 88.1837 64.3264 87.2421 66.3046L87.2415 66.3021ZM21.4437 23.9768C21.6306 24.8605 24.5066 22.9583 25.0503 23.0252L25.804 24.1861L27.3549 23.4572L23.6043 21.9262C23.6642 23.6807 22.2367 22.9844 21.4443 23.9793L21.4437 23.9768ZM62.1287 43.0211C61.7058 43.1321 61.6103 45.6233 62.491 45.8188C62.4842 44.9424 63.1332 43.5791 62.1287 43.0211ZM92.3476 60.9715L93.3815 61.3785L95.787 57.587C94.6871 56.5752 94.6908 58.715 94.2217 59.3572C93.7527 59.9994 92.6634 60.0942 92.3486 60.9699L92.3476 60.9715ZM63.7427 38.4658L65.4636 39.1298C66.7482 37.9521 63.5812 38.2169 63.7427 38.4658ZM66.1581 38.717L66.7633 39.1024L67.6521 38.388C67.1604 37.9289 66.4272 38.0785 66.1566 38.7161L66.1581 38.717ZM56.0759 27.5779L56.5283 27.8659L57.8771 27.4445C57.3614 27.013 56.9926 26.8534 56.3645 27.128L56.0765 27.5804L56.0759 27.5779ZM89.2652 48.281L89.8735 48.6683L91.0375 46.8403L90.4292 46.453L89.2652 48.281ZM96.9137 45.5187C96.9159 46.1495 95.9213 46.5882 96.5636 46.922L97.7276 45.0939L96.5232 44.9715C96.2546 45.1742 96.9111 45.3001 96.9127 45.5203L96.9137 45.5187ZM66.1807 25.8662C66.065 27.0599 67.3893 28.06 68.1564 28.832C68.1869 27.7215 66.8775 26.6407 66.1807 25.8662ZM84.2369 33.924C85.0352 34.6471 84.8678 34.0228 85.3359 33.6249C86.1354 32.9461 86.9307 32.1593 87.5912 31.3447C86.3309 30.4971 85.1341 33.3009 84.2354 33.9231L84.2369 33.924ZM91.3188 36.2852C93.5951 37.6959 95.6899 38.8386 97.3438 40.9807L97.7281 35.6511L91.3188 36.2852ZM56.661 12.501C56.7162 12.7145 57.6637 13.6013 57.9916 13.7779C58.2442 12.9527 57.4353 12.5129 56.8508 12.203C56.8038 12.3105 56.645 12.435 56.661 12.501ZM80.4899 22.9521L84.2901 27.0903L85.0688 25.8741C83.7787 25.2589 82.9214 24.1158 81.7688 23.3217C81.4388 23.0944 80.7305 22.3921 80.4909 22.9505L80.4899 22.9521ZM89.6084 24.4726C86.6651 22.2505 83.0009 20.5232 79.9846 18.3448C79.7492 18.863 80.9778 19.6625 81.3575 20.0074C84.4674 22.8382 88.1788 25.3044 91.735 27.5388C92.3143 25.8969 91.2411 26.1824 90.3128 25.3701C89.9677 25.0687 89.7345 24.568 89.6084 24.4726ZM69.8791 5.89979C71.7925 7.69167 72.7515 12.126 74.5983 13.6413C78.525 16.8591 83.7348 18.9218 88.1385 21.3972C89.6588 22.2513 91.0643 23.3331 92.5659 24.2098L92.1357 22.8682C92.8838 22.4724 93.1236 22.2105 93.8454 22.8784C94.8223 22.7035 92.1851 19.0158 91.887 18.725C90.6925 17.5649 88.7706 16.8288 87.4227 15.7815C82.4061 11.887 77.365 7.53864 71.0396 5.82458C70.6291 5.71359 70.2343 5.46003 69.8791 5.89979ZM123.56 42.5142C123.617 42.7116 124.054 43.4624 124.113 43.44C124.924 42.6458 124.716 41.2694 125.187 40.4482C125.526 39.8585 126.234 39.5963 126.539 38.8645C126.882 38.043 126.295 33.2163 126.285 31.9509C126.019 33.8565 123.364 36.3121 122.958 37.5742C122.867 37.8541 123.42 42.019 123.56 42.5142ZM157.898 5.45927C155.008 6.32136 148.127 9.55105 145.682 11.2699C142.96 13.184 140.091 15.7501 138.253 18.5479C143.552 18.9963 146.505 14.1503 150.507 11.7448C151.614 11.0791 158.995 8.2435 160.171 8.02571C161.175 7.83971 162.408 7.93337 163.538 7.83217C163.897 7.80098 164.65 7.38452 164.648 8.10285C163.442 8.45446 162.079 8.54449 160.907 8.96879C155.715 10.851 152.019 13.6205 148.12 17.5178C147.889 17.7488 147.239 18.0872 147.54 18.4483C149.035 18.3002 151.419 19.3222 152.8 19.0971C157.266 18.3642 164.194 11.0253 167.626 10.8776C168.593 10.8361 169.522 11.4555 170.531 10.9939C170.889 10.4314 167.244 8.17486 169.073 6.85004L171.856 6.89901C172.271 6.41576 171.348 6.13763 170.994 5.97217C167.123 4.14762 161.919 4.26224 157.897 5.4608L157.898 5.45927ZM155.25 19.4954C158.021 20.8173 159.994 19.7559 162.677 19.2641C163.307 19.1478 163.871 19.5581 164.345 19.4175C166.296 18.8425 169.411 14.5536 172.133 15.2212C172.936 14.0718 170.733 13.4466 171.964 12.1193C171.565 11.7145 171.429 11.8813 171.014 11.9719C168.708 12.4799 161.841 16.0059 159.338 17.2519C157.961 17.9369 156.673 18.8803 155.25 19.4954ZM161.223 21.5803C161.918 22.8514 163.156 22.759 164.118 23.4103C164.882 23.927 165.345 24.6903 166.356 25.2888C168.538 26.5814 171.32 26.7199 173.609 27.7499C174.577 26.7725 172.659 26.7113 172.24 25.8279L173.137 24.4554C169.976 21.6347 173.663 23.1681 175.003 22.8247C175.675 22.6532 176.154 21.9575 176.898 21.9092C176.409 20.9574 175.454 20.3085 176.437 19.2659C179.627 20.0014 183.051 22.9422 183.113 17.7013C184.568 17.0488 185.897 18.557 186.393 19.8157C186.672 20.5216 187.919 24.119 188.016 24.6945C188.197 25.7764 187.49 27.3561 188.527 28.2546C189.159 28.8007 189.085 28.2383 189.485 27.8635C191.777 25.7206 192.267 25.2981 191.625 22.1887C191.538 21.7708 190.978 21.4674 190.885 21.0456C190.512 19.3173 190.752 15.5238 188.476 14.9685C187.911 15.3815 186.052 15.3819 185.827 15.4897C185.465 15.6632 183.393 17.2912 183.079 17.3939C180.724 18.1713 173.884 16.1318 171.322 16.8935C169.939 17.3041 168.296 18.9326 166.947 19.6311C165.151 20.5601 163.116 20.9422 161.222 21.5833L161.223 21.5803ZM179.438 23.3179C179.289 24.8707 177.699 24.7393 177.193 26.176L181.138 27.3973L181.542 26.3549L182.523 26.5584L182.905 25.9577C181.949 24.5559 180.949 24.0114 179.436 23.3169L179.438 23.3179ZM175.167 11.4045C175.613 12.5693 176.301 13.5807 176.462 14.94L179.258 14.8324C177.207 13.1891 178.726 12.6012 178.727 12.2192C178.729 11.8959 177.342 10.3533 177.787 9.38038L176.886 9.11989L174.79 10.4513C175.241 10.6846 175.065 11.1397 175.167 11.4045Z" fill="#506C46"/>
</svg>
